<svg data-v-423bf9ae="" xmlns="http://www.w3.org/2000/svg" viewBox="0 0 206.14938882892596 181" class="iconAboveSlogan"><!----><!----><!----><g data-v-423bf9ae="" id="8e574c7c-256a-48be-94d5-b3aca37153f4" fill="#000000" transform="matrix(4.350978982304327,0,0,4.350978982304327,-3.3502549448765677,90.51269129555376)"><path d="M7.32 4.97L7.32 3.09L11.26 3.09L11.26 4.97L10.42 4.97L10.42 13.45L8.15 13.45L3.83 6.75L3.83 11.58L4.70 11.58L4.70 13.45L0.77 13.45L0.77 11.58L1.63 11.58L1.63 4.97L0.79 4.97L0.79 3.09L3.92 3.09L8.20 9.88L8.20 4.97L7.32 4.97ZM11.96 8.24L11.96 6.37L15.07 6.37L15.07 13.58L15.07 13.58Q15.07 14.39 14.86 14.97L14.86 14.97L14.86 14.97Q14.66 15.55 14.28 15.93L14.28 15.93L14.28 15.93Q13.89 16.30 13.32 16.48L13.32 16.48L13.32 16.48Q12.76 16.66 12.02 16.66L12.02 16.66L12.00 15.11L12.00 15.11Q12.49 15.09 12.73 14.71L12.73 14.71L12.73 14.71Q12.97 14.34 12.97 13.72L12.97 13.72L12.97 8.24L11.96 8.24ZM12.85 4.09L12.85 4.09L12.85 4.09Q12.85 3.83 12.94 3.61L12.94 3.61L12.94 3.61Q13.04 3.39 13.20 3.23L13.20 3.23L13.20 3.23Q13.36 3.06 13.59 2.97L13.59 2.97L13.59 2.97Q13.81 2.87 14.07 2.87L14.07 2.87L14.07 2.87Q14.31 2.87 14.54 2.97L14.54 2.97L14.54 2.97Q14.76 3.06 14.93 3.23L14.93 3.23L14.93 3.23Q15.09 3.39 15.19 3.61L15.19 3.61L15.19 3.61Q15.29 3.83 15.29 4.09L15.29 4.09L15.29 4.09Q15.29 4.34 15.19 4.56L15.19 4.56L15.19 4.56Q15.09 4.79 14.93 4.95L14.93 4.95L14.93 4.95Q14.76 5.11 14.54 5.21L14.54 5.21L14.54 5.21Q14.31 5.30 14.07 5.30L14.07 5.30L14.07 5.30Q13.81 5.30 13.59 5.21L13.59 5.21L13.59 5.21Q13.36 5.11 13.20 4.95L13.20 4.95L13.20 4.95Q13.04 4.79 12.94 4.56L12.94 4.56L12.94 4.56Q12.85 4.34 12.85 4.09ZM20.75 13.45L20.75 13.07L20.75 13.07Q20.51 13.22 20.32 13.33L20.32 13.33L20.32 13.33Q20.12 13.43 19.92 13.50L19.92 13.50L19.92 13.50Q19.72 13.56 19.51 13.59L19.51 13.59L19.51 13.59Q19.30 13.62 19.04 13.62L19.04 13.62L19.04 13.62Q18.41 13.62 17.91 13.45L17.91 13.45L17.91 13.45Q17.40 13.28 17.06 12.97L17.06 12.97L17.06 12.97Q16.71 12.67 16.53 12.25L16.53 12.25L16.53 12.25Q16.34 11.84 16.34 11.35L16.34 11.35L16.34 11.35Q16.34 10.86 16.53 10.45L16.53 10.45L16.53 10.45Q16.72 10.03 17.08 9.73L17.08 9.73L17.08 9.73Q17.43 9.43 17.95 9.27L17.95 9.27L17.95 9.27Q18.46 9.10 19.13 9.10L19.13 9.10L19.13 9.10Q19.61 9.10 20.01 9.15L20.01 9.15L20.01 9.15Q20.41 9.20 20.75 9.28L20.75 9.28L20.75 9.06L20.75 9.06Q20.75 8.79 20.65 8.60L20.65 8.60L20.65 8.60Q20.55 8.40 20.36 8.27L20.36 8.27L20.36 8.27Q20.18 8.15 19.92 8.09L19.92 8.09L19.92 8.09Q19.66 8.03 19.35 8.03L19.35 8.03L19.35 8.03Q18.71 8.03 18.22 8.16L18.22 8.16L18.22 8.16Q17.73 8.29 17.28 8.52L17.28 8.52L16.63 7.20L16.63 7.20Q17.32 6.72 18.08 6.47L18.08 6.47L18.08 6.47Q18.85 6.21 19.70 6.21L19.70 6.21L19.70 6.21Q20.36 6.21 20.93 6.36L20.93 6.36L20.93 6.36Q21.49 6.51 21.90 6.84L21.90 6.84L21.90 6.84Q22.30 7.17 22.53 7.70L22.53 7.70L22.53 7.70Q22.76 8.24 22.76 9.00L22.76 9.00L22.76 11.58L23.71 11.58L23.71 13.45L20.75 13.45ZM19.20 12.01L19.20 12.01L19.20 12.01Q19.68 12.01 20.08 11.85L20.08 11.85L20.08 11.85Q20.47 11.70 20.75 11.47L20.75 11.47L20.75 10.57L19.11 10.57L19.11 10.57Q18.96 10.57 18.81 10.62L18.81 10.62L18.81 10.62Q18.66 10.66 18.54 10.75L18.54 10.75L18.54 10.75Q18.42 10.84 18.34 10.97L18.34 10.97L18.34 10.97Q18.27 11.10 18.27 11.27L18.27 11.27L18.27 11.27Q18.27 11.59 18.50 11.80L18.50 11.80L18.50 11.80Q18.73 12.01 19.20 12.01ZM30.97 13.45L30.97 9.38L30.97 9.38Q30.97 8.78 30.66 8.45L30.66 8.45L30.66 8.45Q30.34 8.11 29.83 8.11L29.83 8.11L29.83 8.11Q29.47 8.11 29.11 8.26L29.11 8.26L29.11 8.26Q28.75 8.42 28.40 8.85L28.40 8.85L28.40 11.58L29.55 11.58L29.55 13.45L25.15 13.45L25.15 11.58L26.19 11.58L26.19 8.24L25.16 8.24L25.16 6.37L28.39 6.37L28.39 6.99L28.39 6.99Q28.83 6.64 29.38 6.44L29.38 6.44L29.38 6.44Q29.93 6.24 30.54 6.24L30.54 6.24L30.54 6.24Q31.82 6.24 32.51 6.96L32.51 6.96L32.51 6.96Q33.20 7.67 33.20 9.04L33.20 9.04L33.20 11.58L34.21 11.58L34.21 13.45L30.97 13.45ZM40.39 13.12L40.39 13.08L40.39 13.08Q40.00 13.30 39.62 13.40L39.62 13.40L39.62 13.40Q39.24 13.49 38.84 13.49L38.84 13.49L38.84 13.49Q38.02 13.49 37.33 13.21L37.33 13.21L37.33 13.21Q36.64 12.93 36.14 12.44L36.14 12.44L36.14 12.44Q35.64 11.94 35.36 11.27L35.36 11.27L35.36 11.27Q35.08 10.59 35.08 9.80L35.08 9.80L35.08 9.80Q35.08 9.05 35.35 8.39L35.35 8.39L35.35 8.39Q35.62 7.73 36.10 7.24L36.10 7.24L36.10 7.24Q36.59 6.74 37.26 6.45L37.26 6.45L37.26 6.45Q37.94 6.17 38.73 6.16L38.73 6.16L38.73 6.16Q39.22 6.17 39.62 6.26L39.62 6.26L39.62 6.26Q40.03 6.36 40.39 6.52L40.39 6.52L40.39 6.37L42.46 6.37L42.46 13.16L42.46 13.16Q42.46 14.05 42.15 14.71L42.15 14.71L42.15 14.71Q41.84 15.36 41.33 15.79L41.33 15.79L41.33 15.79Q40.81 16.21 40.13 16.42L40.13 16.42L40.13 16.42Q39.44 16.63 38.69 16.63L38.69 16.63L38.69 16.63Q37.76 16.63 36.97 16.38L36.97 16.38L36.97 16.38Q36.18 16.13 35.57 15.70L35.57 15.70L36.42 14.18L36.42 14.18Q36.89 14.48 37.45 14.65L37.45 14.65L37.45 14.65Q38.00 14.83 38.68 14.83L38.68 14.83L38.68 14.83Q39.05 14.83 39.36 14.75L39.36 14.75L39.36 14.75Q39.67 14.66 39.90 14.47L39.90 14.47L39.90 14.47Q40.13 14.27 40.26 13.95L40.26 13.95L40.26 13.95Q40.39 13.62 40.39 13.12L40.39 13.12ZM38.91 11.60L38.91 11.60L38.91 11.60Q39.39 11.60 39.77 11.36L39.77 11.36L39.77 11.36Q40.16 11.12 40.39 10.72L40.39 10.72L40.40 9.00L40.40 9.00Q40.17 8.57 39.76 8.31L39.76 8.31L39.76 8.31Q39.36 8.06 38.89 8.05L38.89 8.05L38.89 8.05Q38.55 8.06 38.23 8.19L38.23 8.19L38.23 8.19Q37.91 8.31 37.68 8.54L37.68 8.54L37.68 8.54Q37.44 8.78 37.30 9.10L37.30 9.10L37.30 9.10Q37.17 9.41 37.17 9.80L37.17 9.80L37.17 9.80Q37.17 10.21 37.30 10.55L37.30 10.55L37.30 10.55Q37.44 10.88 37.67 11.12L37.67 11.12L37.67 11.12Q37.91 11.35 38.22 11.47L38.22 11.47L38.22 11.47Q38.54 11.60 38.91 11.60ZM43.98 8.24L43.98 6.37L47.16 6.37L47.16 11.58L48.15 11.58L48.15 13.45L43.98 13.45L43.98 11.58L45.05 11.58L45.05 8.24L43.98 8.24ZM44.94 4.09L44.94 4.09L44.94 4.09Q44.94 3.83 45.03 3.61L45.03 3.61L45.03 3.61Q45.12 3.39 45.29 3.23L45.29 3.23L45.29 3.23Q45.45 3.06 45.67 2.97L45.67 2.97L45.67 2.97Q45.90 2.87 46.16 2.87L46.16 2.87L46.16 2.87Q46.40 2.87 46.62 2.97L46.62 2.97L46.62 2.97Q46.84 3.06 47.00 3.23L47.00 3.23L47.00 3.23Q47.17 3.39 47.26 3.61L47.26 3.61L47.26 3.61Q47.36 3.83 47.36 4.09L47.36 4.09L47.36 4.09Q47.36 4.34 47.26 4.56L47.26 4.56L47.26 4.56Q47.17 4.79 47.00 4.95L47.00 4.95L47.00 4.95Q46.84 5.11 46.62 5.21L46.62 5.21L46.62 5.21Q46.40 5.30 46.16 5.30L46.16 5.30L46.16 5.30Q45.90 5.30 45.67 5.21L45.67 5.21L45.67 5.21Q45.45 5.11 45.29 4.95L45.29 4.95L45.29 4.95Q45.12 4.79 45.03 4.56L45.03 4.56L45.03 4.56Q44.94 4.34 44.94 4.09Z"></path></g><defs data-v-423bf9ae=""><linearGradient data-v-423bf9ae="" gradientTransform="rotate(25)" id="fad5550a-c3ea-4984-a5ef-5d240c311c0a" x1="0%" y1="0%" x2="100%" y2="0%"><stop data-v-423bf9ae="" offset="0%" style="stop-color: rgb(2, 24, 2); stop-opacity: 1;"></stop><stop data-v-423bf9ae="" offset="100%" style="stop-color: rgb(96, 219, 204); stop-opacity: 1;"></stop></linearGradient></defs><g data-v-423bf9ae="" id="9c0fa2e6-af6d-4b50-b6fd-a104b853e4e8" transform="matrix(1.4285630380167469,0,0,1.4285630380167469,52.31315983445437,-5.928378565796464)" stroke="none" fill="url(#fad5550a-c3ea-4984-a5ef-5d240c311c0a)"><path d="M10.66 21.23h9.6a3.93 3.93 0 0 0 3.93-3.93c0-1.76-1.18-3.28-2.84-3.76.07-.26.1-.52.1-.78 0-1.75-1.42-3.18-3.18-3.18-1 0-1.93.47-2.52 1.26a3.89 3.89 0 0 0-5.89 2.62 3.91 3.91 0 0 0-3.14 3.83c.01 2.17 1.78 3.94 3.94 3.94zm-.33-6.82c.21.02 1.27.17 1.73 1.2a.5.5 0 0 0 .66.26c.25-.11.37-.41.26-.66-.5-1.14-1.47-1.55-2.08-1.71.31-1.3 1.45-2.24 2.82-2.24.68 0 1.32.24 1.86.69.12.1.28.13.42.1a.48.48 0 0 0 .34-.26c.38-.74 1.12-1.2 1.93-1.2 1.2 0 2.18.98 2.18 2.18 0 .22-.05.45-.13.67-.67.08-1.6.45-1.92 1.53a.5.5 0 0 0 .33.62c.05.01.1.02.14.02.21 0 .41-.14.48-.35.25-.83 1.11-.85 1.27-.84 1.46.19 2.55 1.43 2.55 2.89 0 1.61-1.31 2.93-2.93 2.93h-9.6c-1.62 0-2.93-1.31-2.93-2.93a2.94 2.94 0 0 1 2.62-2.9zM62.87 66.5h-3.41c-.28 0-.5.22-.5.5s.22.5.5.5h3.41c.28 0 .5-.22.5-.5s-.23-.5-.5-.5zM57.33 66.5h-8.96c.71-.67 1.16-1.61 1.16-2.66V39.9c0-1.9-1.54-3.44-3.44-3.44h-2.33v-2.55h.4c1.35 0 2.44-1.1 2.44-2.44s-1.1-2.44-2.44-2.44H26.45c-1.35 0-2.44 1.1-2.44 2.44s1.1 2.44 2.44 2.44h.41v2.55h-2.33c-1.89 0-3.44 1.54-3.44 3.44v23.94c0 1.05.45 1.99 1.16 2.66H7.81c-.28 0-.5.22-.5.5s.22.5.5.5h49.52c.28 0 .5-.22.5-.5s-.22-.5-.5-.5zM26.45 32.91c-.79 0-1.44-.65-1.44-1.44 0-.8.65-1.44 1.44-1.44h17.72a1.44 1.44 0 0 1 0 2.88H26.45zm1.41 1h14.91v2.55H27.86v-2.55zM24.75 66.5c-1.47 0-2.66-1.19-2.66-2.66V39.9c0-1.34 1.09-2.44 2.44-2.44H46.1c1.34 0 2.44 1.09 2.44 2.44v23.94c0 1.47-1.19 2.66-2.66 2.66H24.75zM29.75 22.57c.23 1.5 1.03 2.81 2.25 3.7a5.6 5.6 0 0 0 4.21 1.02c3.08-.48 5.19-3.38 4.71-6.47-.09-.57-.28-1.1-.53-1.6l.94-1.46 4.09-1.97c.05-.02.1-.06.14-.1L49.25 12l3.18.22c.27.01.51-.19.53-.46a.495.495 0 0 0-.46-.53L49.1 11a.52.52 0 0 0-.39.15l-3.79 3.79-4.14 2c-.08.04-.15.1-.2.18l-1.12 1.75c-.02.02-.03.05-.05.07l-.65 1.02c-.24.28-.59.31-.82.25-.14-.04-.39-.14-.46-.45-.53-2.51 1.1-4.64 1.15-4.72l1.16-2.01c.07-.13.09-.28.04-.42l-.39-1.06a.514.514 0 0 0-.43-.33l-1.89-.17c-.21-.02-.41.1-.5.29l-1.45 3.12c-.04.09-.05.18-.04.28l.18 1.31c-.05 0-.1-.01-.15-.01-.23.01-.45.02-.68.06-.54.09-1.04.25-1.51.47l-.76-3.39 5.26-6.83 9.98-.5 5.85-.35c.28-.02.49-.25.47-.53s-.24-.48-.53-.47l-5.87.35-10.2.51c-.15.01-.28.08-.37.19l-5.55 7.19c-.09.12-.13.27-.09.41l.88 3.94c-1.67 1.22-2.63 3.3-2.29 5.48zm7.62-10.49l1.23.11.2.55-1.01 1.74c-.04.05-.55.72-.95 1.75-.16-.04-.34-.07-.53-.1l-.19-1.38 1.25-2.67zm-2.76 5.01c.2-.03.38-.04.58-.05.21-.01.41 0 .67.03.26.02.49.06.69.11-.16.68-.24 1.46-.14 2.29-.17-.15-.38-.26-.6-.32v-.44c0-.28-.22-.5-.5-.5s-.5.22-.5.5v.43c-.69.22-1.2.85-1.2 1.62 0 .94.76 1.7 1.7 1.7.39 0 .7.31.7.7s-.31.7-.7.7c-.34 0-.64-.25-.69-.59a.505.505 0 0 0-.57-.42c-.27.04-.46.3-.42.57.1.66.57 1.17 1.18 1.36v.43c0 .28.22.5.5.5s.5-.22.5-.5v-.43c.69-.22 1.2-.85 1.2-1.62 0-.94-.76-1.7-1.7-1.7-.39 0-.7-.31-.7-.7 0-.39.31-.7.7-.7.32 0 .61.23.68.55.06.27.33.44.6.38a.49.49 0 0 0 .32-.24c.2.2.46.35.76.43.15.04.3.06.45.06.53 0 1.05-.23 1.42-.68l.21-.32c.08.24.15.49.19.75.39 2.54-1.35 4.93-3.88 5.33-1.23.19-2.46-.11-3.47-.84a4.648 4.648 0 0 1-1.86-3.05c-.39-2.55 1.35-4.94 3.88-5.34z"></path><path d="M47.12 64.05v-2.2c0-.64-.52-1.17-1.17-1.17h-.09l.83-1.88c.13-.29.13-.6.02-.89s-.33-.52-.62-.65l-10.42-4.61a1.17 1.17 0 0 0-1.54.6l-.89 2.01c-.13.29-.13.6-.02.89s.33.52.62.65l.07.03-10.11 3.41c-.29.1-.53.31-.67.59-.14.28-.16.6-.06.89l.7 2.08a1.168 1.168 0 0 0 1.48.73l8.14-2.75c0 .02-.01.04-.01.07v2.2c0 .64.52 1.17 1.17 1.17h11.4c.64 0 1.17-.52 1.17-1.17zm-12.96-8.39l.89-2.01c.03-.06.09-.1.15-.1.02 0 .05 0 .07.01l10.42 4.61c.05.02.08.07.09.09.01.02.02.07 0 .13l-.89 2.01c-.03.07-.14.12-.22.09l-10.42-4.61a.191.191 0 0 1-.09-.09.184.184 0 0 1 0-.13zm8.47 5.03H36.4c.37-.3.55-.8.39-1.28l-.52-1.54 6.36 2.82zm-17.69 2.9a.168.168 0 0 1-.21-.1l-.7-2.08c-.03-.07.03-.19.1-.21l10.8-3.65c.09-.03.18.02.21.1l.7 2.08c.03.09-.02.18-.1.21l-10.8 3.65zm9.44.46v-2.2c0-.09.08-.17.17-.17h11.4c.09 0 .17.07.17.17v2.2c0 .09-.08.17-.17.17h-11.4c-.09 0-.17-.07-.17-.17zM25.47 50.5c.28 0 .5-.22.5-.5v-7.96c0-.28.22-.5.5-.5h3.46c.28 0 .5-.22.5-.5s-.22-.5-.5-.5h-3.46c-.83 0-1.5.67-1.5 1.5V50c0 .27.22.5.5.5zM25.47 54.15c.28 0 .5-.22.5-.5v-1.17c0-.28-.22-.5-.5-.5s-.5.22-.5.5v1.17c0 .27.22.5.5.5zM64.77 25.9h-2.5a3.132 3.132 0 0 0-1.32-5.11c.04-.17.06-.35.06-.52 0-1.41-1.15-2.56-2.56-2.56-.78 0-1.49.35-1.97.94-.47-.27-1-.42-1.54-.42-1.51 0-2.76 1.05-3.06 2.49a3.119 3.119 0 0 0-2.43 3.05c0 .83.32 1.58.84 2.14H48.7c-.28 0-.5.22-.5.5s.22.5.5.5h3.87c.28 0 .5-.22.5-.5s-.22-.5-.5-.5c-1.18 0-2.14-.96-2.14-2.14 0-1.08.81-1.98 1.89-2.11.18.02.91.14 1.22.85a.5.5 0 0 0 .66.26c.25-.11.37-.41.26-.66-.37-.85-1.08-1.2-1.58-1.35a2.117 2.117 0 0 1 3.4-1.03c.12.1.28.14.42.11a.48.48 0 0 0 .34-.26c.27-.53.8-.86 1.39-.86.86 0 1.56.7 1.56 1.56 0 .14-.03.28-.07.41-.54.08-1.25.4-1.51 1.25a.5.5 0 0 0 .33.62c.05.01.1.02.14.02.21 0 .41-.14.48-.36.17-.56.76-.57.87-.57 1.06.14 1.86 1.04 1.86 2.11 0 1.18-.96 2.14-2.14 2.14-.28 0-.5.22-.5.5s.22.5.5.5h4.8c.28 0 .5-.22.5-.5s-.21-.5-.48-.5z"></path><path d="M57.76 26.9c.28 0 .5-.22.5-.5s-.22-.5-.5-.5h-1.03c-.28 0-.5.22-.5.5s.22.5.5.5h1.03zM60.14 46.17c-.28 0-.5.22-.5.5v8.95c0 .28.22.5.5.5s.5-.22.5-.5v-8.45h2.01c.19 0 .37-.11.45-.29.08-.17.06-.38-.07-.53l-4.32-5.23a.516.516 0 0 0-.77 0l-4.32 5.23c-.12.15-.15.36-.07.53.08.18.26.29.45.29h2.01v8.45c0 .28.22.5.5.5s.5-.22.5-.5v-8.95c0-.28-.22-.5-.5-.5h-1.45l3.26-3.94 3.26 3.94h-1.44zM57.01 59.72v-1.16c0-.28-.22-.5-.5-.5s-.5.22-.5.5v1.16c0 .28.22.5.5.5s.5-.23.5-.5zM60.16 58.05c-.28 0-.5.22-.5.5v1.16c0 .28.22.5.5.5s.5-.22.5-.5v-1.16c0-.28-.22-.5-.5-.5zM16.91 34.97c.08-.17.06-.38-.07-.53l-4.32-5.23c-.1-.12-.24-.18-.39-.18s-.29.07-.39.18l-4.32 5.23c-.12.15-.15.36-.07.53.08.18.26.29.45.29h2.01v8.45c0 .28.22.5.5.5s.5-.22.5-.5v-8.95c0-.28-.22-.5-.5-.5H8.87l3.26-3.94 3.26 3.94h-1.45c-.28 0-.5.22-.5.5v8.95c0 .28.22.5.5.5s.5-.22.5-.5v-8.45h2.01c.2 0 .38-.11.46-.29zM10.32 46.14c-.28 0-.5.22-.5.5v1.16c0 .28.22.5.5.5s.5-.22.5-.5v-1.16c0-.28-.22-.5-.5-.5zM13.97 46.14c-.28 0-.5.22-.5.5v1.16c0 .28.22.5.5.5s.5-.22.5-.5v-1.16c0-.28-.22-.5-.5-.5z"></path></g><!----><g data-v-423bf9ae="" id="bc4adae3-a3ac-44a4-8d43-d12838034397" fill="#000000" transform="matrix(0.3385343745116048,0,0,0.3385343745116048,28.691605365511265,204.68885794942494)"><path d="M4.19 6.69L4.19 6.69L4.19 6.69Q3.63 6.69 3.33 6.38L3.33 6.38L3.33 6.38Q3.02 6.06 3.02 5.61L3.02 5.61L3.02 5.61Q3.02 5.50 3.06 5.35L3.06 5.35L3.06 5.35Q3.09 5.19 3.15 5.08L3.15 5.08L3.15 5.08Q3.33 5.17 3.69 5.20L3.69 5.20L3.69 5.20Q4.05 5.24 4.52 5.24L4.52 5.24L4.52 5.24Q5.24 5.24 6.14 5.17L6.14 5.17L6.14 5.17Q7.04 5.11 7.87 5.04L7.87 5.04L7.87 5.04Q8.69 4.97 9.32 4.91L9.32 4.91L9.32 4.91Q9.95 4.84 10.14 4.84L10.14 4.84L10.14 4.84Q10.65 4.84 10.88 5.23L10.88 5.23L10.88 5.23Q11.12 5.61 11.23 6.26L11.23 6.26L11.23 6.26Q10.86 6.23 10.51 6.21L10.51 6.21L10.51 6.21Q10.15 6.19 9.90 6.19L9.90 6.19L9.90 6.19Q9.45 6.19 9.00 6.22L9.00 6.22L9.00 6.22Q8.54 6.24 8.08 6.30L8.08 6.30L8.08 6.30Q7.88 6.71 7.64 7.26L7.64 7.26L7.64 7.26Q7.41 7.81 7.17 8.41L7.17 8.41L7.17 8.41Q6.94 9.02 6.73 9.61L6.73 9.61L6.73 9.61Q6.52 10.21 6.37 10.68L6.37 10.68L6.37 10.68Q6.06 11.61 5.83 12.39L5.83 12.39L5.83 12.39Q5.60 13.17 5.42 13.85L5.42 13.85L5.42 13.85Q5.25 14.53 5.12 15.15L5.12 15.15L5.12 15.15Q5.00 15.76 4.90 16.35L4.90 16.35L4.90 16.35Q3.96 16.21 3.33 15.18L3.33 15.18L3.33 15.18Q3.44 14.74 3.60 14.23L3.60 14.23L3.60 14.23Q3.77 13.72 3.98 13.07L3.98 13.07L3.98 13.07Q4.20 12.42 4.49 11.59L4.49 11.59L4.49 11.59Q4.79 10.77 5.17 9.72L5.17 9.72L5.17 9.72Q5.31 9.32 5.46 8.90L5.46 8.90L5.46 8.90Q5.61 8.47 5.76 8.05L5.76 8.05L5.76 8.05Q5.91 7.63 6.03 7.24L6.03 7.24L6.03 7.24Q6.15 6.85 6.23 6.52L6.23 6.52L6.23 6.52Q5.64 6.59 5.12 6.64L5.12 6.64L5.12 6.64Q4.59 6.69 4.19 6.69ZM16.65 15.67L16.65 15.67L16.65 15.67Q15.85 15.58 15.37 14.97L15.37 14.97L15.37 14.97Q14.90 14.35 14.90 13.40L14.90 13.40L14.90 13.40Q14.90 12.84 15.06 12.24L15.06 12.24L15.06 12.24Q15.23 11.63 15.54 11.07L15.54 11.07L15.54 11.07Q15.85 10.50 16.27 10.00L16.27 10.00L16.27 10.00Q16.69 9.49 17.18 9.13L17.18 9.13L17.18 9.13Q17.95 8.55 18.62 8.55L18.62 8.55L18.62 8.55Q19.07 8.79 19.50 9.55L19.50 9.55L19.50 9.55Q19.57 9.55 19.63 9.54L19.63 9.54L19.63 9.54Q19.68 9.53 19.75 9.53L19.75 9.53L19.75 9.53Q20.50 9.53 20.50 10.85L20.50 10.85L20.50 10.85Q20.50 11.73 20.21 12.52L20.21 12.52L20.21 12.52Q19.92 13.31 19.41 13.96L19.41 13.96L19.41 13.96Q18.90 14.60 18.19 15.04L18.19 15.04L18.19 15.04Q17.49 15.48 16.65 15.67ZM17.36 11.26L17.36 11.26L17.36 11.26Q17.12 11.58 16.91 11.96L16.91 11.96L16.91 11.96Q16.70 12.33 16.55 12.72L16.55 12.72L16.55 12.72Q16.39 13.10 16.31 13.46L16.31 13.46L16.31 13.46Q16.23 13.82 16.23 14.10L16.23 14.10L16.23 14.10Q16.23 14.43 16.34 14.74L16.34 14.74L16.34 14.74Q16.45 15.05 16.59 15.09L16.59 15.09L16.59 15.09Q17.22 14.95 17.74 14.57L17.74 14.57L17.74 14.57Q18.27 14.18 18.66 13.61L18.66 13.61L18.66 13.61Q19.04 13.03 19.26 12.31L19.26 12.31L19.26 12.31Q19.47 11.58 19.47 10.75L19.47 10.75L19.47 10.75Q19.47 10.39 19.43 10.18L19.43 10.18L19.43 10.18Q19.39 9.97 19.29 9.81L19.29 9.81L19.29 9.81Q18.68 10.00 18.19 10.40L18.19 10.40L18.19 10.40Q17.71 10.81 17.36 11.26ZM25.34 19.35L25.34 19.35L25.34 19.35Q25.34 19.26 25.40 19.19L25.40 19.19L25.40 19.19Q25.45 19.12 25.52 19.05L25.52 19.05L25.52 19.05Q25.69 19.21 25.81 19.29L25.81 19.29L25.81 19.29Q25.93 19.38 26.03 19.43L26.03 19.43L26.03 19.43Q26.14 19.49 26.25 19.50L26.25 19.50L26.25 19.50Q26.36 19.52 26.52 19.52L26.52 19.52L26.52 19.52Q27.24 19.52 27.90 19.13L27.90 19.13L27.90 19.13Q28.56 18.75 29.14 18.02L29.14 18.02L29.14 18.02Q29.72 17.29 30.20 16.24L30.20 16.24L30.20 16.24Q30.67 15.19 31.04 13.86L31.04 13.86L31.04 13.86Q30.87 14.03 30.63 14.23L30.63 14.23L30.63 14.23Q30.38 14.43 30.11 14.62L30.11 14.62L30.11 14.62Q29.85 14.80 29.59 14.95L29.59 14.95L29.59 14.95Q29.33 15.11 29.15 15.18L29.15 15.18L29.15 15.18Q28.91 15.13 28.71 14.97L28.71 14.97L28.71 14.97Q28.50 14.81 28.35 14.57L28.35 14.57L28.35 14.57Q28.20 14.34 28.11 14.04L28.11 14.04L28.11 14.04Q28.03 13.73 28.03 13.40L28.03 13.40L28.03 13.40Q28.03 12.85 28.23 12.28L28.23 12.28L28.23 12.28Q28.43 11.70 28.77 11.15L28.77 11.15L28.77 11.15Q29.11 10.60 29.56 10.11L29.56 10.11L29.56 10.11Q30.02 9.62 30.53 9.25L30.53 9.25L30.53 9.25Q31.04 8.89 31.56 8.67L31.56 8.67L31.56 8.67Q32.09 8.46 32.59 8.46L32.59 8.46L32.59 8.46Q33.08 8.46 33.33 8.66L33.33 8.66L33.33 8.66Q33.57 8.86 33.68 9.35L33.68 9.35L33.68 9.35Q33.53 9.27 33.29 9.27L33.29 9.27L33.29 9.27Q32.96 9.27 32.52 9.53L32.52 9.53L32.52 9.53Q32.07 9.80 31.62 10.23L31.62 10.23L31.62 10.23Q31.16 10.65 30.72 11.21L30.72 11.21L30.72 11.21Q30.27 11.76 29.92 12.33L29.92 12.33L29.92 12.33Q29.58 12.91 29.36 13.45L29.36 13.45L29.36 13.45Q29.15 14 29.15 14.43L29.15 14.43L29.15 14.43Q29.15 14.53 29.16 14.55L29.16 14.55L29.16 14.55Q29.18 14.57 29.20 14.57L29.20 14.57L29.20 14.57Q29.33 14.57 29.55 14.43L29.55 14.43L29.55 14.43Q29.76 14.29 30.04 14.08L30.04 14.08L30.04 14.08Q30.31 13.86 30.60 13.57L30.60 13.57L30.60 13.57Q30.90 13.29 31.16 12.99L31.16 12.99L31.16 12.99Q31.77 12.32 32.26 11.49L32.26 11.49L32.26 11.49Q32.76 10.65 33.05 9.87L33.05 9.87L33.05 9.87Q33.43 9.90 33.73 10.00L33.73 10.00L33.73 10.00Q34.02 10.09 34.13 10.21L34.13 10.21L34.13 10.21Q33.66 11.30 33.37 12.04L33.37 12.04L33.37 12.04Q33.08 12.78 32.87 13.36L32.87 13.36L32.87 13.36Q32.49 14.36 32.16 15.20L32.16 15.20L32.16 15.20Q31.84 16.03 31.49 16.74L31.49 16.74L31.49 16.74Q31.15 17.44 30.75 18.05L30.75 18.05L30.75 18.05Q30.35 18.66 29.85 19.22L29.85 19.22L29.85 19.22Q29.61 19.49 29.31 19.69L29.31 19.69L29.31 19.69Q29.01 19.89 28.69 20.03L28.69 20.03L28.69 20.03Q28.38 20.17 28.08 20.24L28.08 20.24L28.08 20.24Q27.78 20.31 27.52 20.31L27.52 20.31L27.52 20.31Q27.19 20.31 26.84 20.24L26.84 20.24L26.84 20.24Q26.49 20.16 26.19 20.03L26.19 20.03L26.19 20.03Q25.89 19.89 25.66 19.72L25.66 19.72L25.66 19.72Q25.44 19.54 25.34 19.35ZM46.48 9.38L46.48 9.38L46.48 9.38Q46.42 10.25 46.17 10.87L46.17 10.87L46.17 10.87Q45.92 11.49 45.45 11.96L45.45 11.96L45.45 11.96Q44.98 12.43 44.31 12.81L44.31 12.81L44.31 12.81Q43.64 13.19 42.74 13.54L42.74 13.54L42.74 13.54Q42.74 13.62 42.73 13.71L42.73 13.71L42.73 13.71Q42.73 13.80 42.73 13.90L42.73 13.90L42.73 13.90Q42.73 14.08 42.76 14.28L42.76 14.28L42.76 14.28Q42.78 14.48 42.85 14.64L42.85 14.64L42.85 14.64Q42.92 14.81 43.05 14.92L43.05 14.92L43.05 14.92Q43.18 15.02 43.37 15.02L43.37 15.02L43.37 15.02Q43.75 15.02 44.11 14.85L44.11 14.85L44.11 14.85Q44.48 14.69 44.81 14.44L44.81 14.44L44.81 14.44Q45.14 14.20 45.42 13.91L45.42 13.91L45.42 13.91Q45.71 13.62 45.93 13.38L45.93 13.38L45.93 13.38Q46.07 13.51 46.17 13.62L46.17 13.62L46.17 13.62Q45.54 14.46 44.79 15.02L44.79 15.02L44.79 15.02Q44.04 15.57 43.37 15.72L43.37 15.72L43.37 15.72Q42.41 15.61 41.87 15.02L41.87 15.02L41.87 15.02Q41.33 14.42 41.33 13.58L41.33 13.58L41.33 13.58Q41.33 13.01 41.49 12.41L41.49 12.41L41.49 12.41Q41.65 11.82 41.94 11.26L41.94 11.26L41.94 11.26Q42.22 10.71 42.61 10.22L42.61 10.22L42.61 10.22Q42.99 9.73 43.44 9.37L43.44 9.37L43.44 9.37Q43.88 9.00 44.34 8.79L44.34 8.79L44.34 8.79Q44.81 8.58 45.28 8.58L45.28 8.58L45.28 8.58Q45.92 8.67 46.48 9.38ZM45.51 9.84L45.51 9.84L45.51 9.84Q45.14 9.90 44.73 10.15L44.73 10.15L44.73 10.15Q44.32 10.40 43.97 10.82L43.97 10.82L43.97 10.82Q43.61 11.24 43.32 11.80L43.32 11.80L43.32 11.80Q43.02 12.36 42.85 13.01L42.85 13.01L42.85 13.01Q43.97 12.45 44.72 11.63L44.72 11.63L44.72 11.63Q45.46 10.81 45.51 9.84ZM55.65 9.81L54.85 9.81L54.85 9.81Q54.78 9.73 54.73 9.46L54.73 9.46L54.73 9.46Q54.67 9.18 54.67 8.99L54.67 8.99L54.67 8.99Q55.03 9.02 55.37 9.04L55.37 9.04L55.37 9.04Q55.71 9.06 55.99 9.07L55.99 9.07L55.99 9.07Q56.20 8.65 56.44 8.24L56.44 8.24L56.44 8.24Q56.69 7.83 56.92 7.48L56.92 7.48L56.92 7.48Q57.15 7.14 57.35 6.90L57.35 6.90L57.35 6.90Q57.55 6.66 57.67 6.59L57.67 6.59L57.67 6.59Q57.81 6.59 58.02 6.64L58.02 6.64L58.02 6.64Q58.24 6.69 58.46 6.77L58.46 6.77L58.46 6.77Q58.69 6.85 58.87 6.93L58.87 6.93L58.87 6.93Q59.05 7.01 59.12 7.10L59.12 7.10L59.12 7.10Q58.70 7.63 58.40 8.09L58.40 8.09L58.40 8.09Q58.10 8.54 57.75 9.13L57.75 9.13L57.75 9.13Q58.03 9.13 58.32 9.11L58.32 9.11L58.32 9.11Q58.60 9.10 58.90 9.07L58.90 9.07L58.90 9.07Q58.97 9.14 59.01 9.25L59.01 9.25L59.01 9.25Q59.05 9.35 59.05 9.46L59.05 9.46L59.05 9.46Q58.37 9.72 57.39 9.74L57.39 9.74L57.39 9.74Q57.04 10.42 56.76 11.08L56.76 11.08L56.76 11.08Q56.49 11.75 56.30 12.36L56.30 12.36L56.30 12.36Q56.11 12.98 56.01 13.52L56.01 13.52L56.01 13.52Q55.90 14.07 55.90 14.50L55.90 14.50L55.90 14.50Q55.90 15.12 56.36 15.19L56.36 15.19L56.36 15.19Q56.78 15.13 57.16 14.98L57.16 14.98L57.16 14.98Q57.54 14.83 57.83 14.59L57.83 14.59L57.83 14.59Q57.92 14.71 57.93 14.80L57.93 14.80L57.93 14.80Q57.85 14.92 57.64 15.09L57.64 15.09L57.64 15.09Q57.44 15.26 57.20 15.42L57.20 15.42L57.20 15.42Q56.97 15.58 56.74 15.69L56.74 15.69L56.74 15.69Q56.52 15.81 56.41 15.82L56.41 15.82L56.41 15.82Q56.06 15.81 55.71 15.67L55.71 15.67L55.71 15.67Q55.36 15.53 55.07 15.32L55.07 15.32L55.07 15.32Q54.78 15.11 54.60 14.85L54.60 14.85L54.60 14.85Q54.42 14.59 54.42 14.34L54.42 14.34L54.42 14.34Q54.42 14 54.51 13.49L54.51 13.49L54.51 13.49Q54.60 12.98 54.77 12.38L54.77 12.38L54.77 12.38Q54.94 11.77 55.16 11.12L55.16 11.12L55.16 11.12Q55.38 10.46 55.65 9.81L55.65 9.81ZM65.94 14.94L65.94 14.94L65.94 14.94Q65.94 14.45 66.04 13.78L66.04 13.78L66.04 13.78Q66.14 13.12 66.33 12.36L66.33 12.36L66.33 12.36Q66.51 11.61 66.77 10.78L66.77 10.78L66.77 10.78Q67.03 9.95 67.35 9.13L67.35 9.13L67.35 9.13Q67.63 8.39 68.01 7.63L68.01 7.63L68.01 7.63Q68.38 6.87 68.81 6.15L68.81 6.15L68.81 6.15Q69.24 5.42 69.71 4.76L69.71 4.76L69.71 4.76Q70.18 4.10 70.66 3.56L70.66 3.56L70.66 3.56Q70.88 3.56 71.14 3.61L71.14 3.61L71.14 3.61Q71.40 3.67 71.65 3.76L71.65 3.76L71.65 3.76Q71.89 3.85 72.09 3.98L72.09 3.98L72.09 3.98Q72.30 4.10 72.42 4.23L72.42 4.23L72.42 4.23Q71.37 5.31 70.53 6.40L70.53 6.40L70.53 6.40Q69.69 7.50 69.20 8.47L69.20 8.47L69.20 8.47Q68.94 9.00 68.72 9.46L68.72 9.46L68.72 9.46Q68.50 9.93 68.32 10.38L68.32 10.38L68.32 10.38Q68.14 10.84 67.99 11.29L67.99 11.29L67.99 11.29Q67.84 11.75 67.72 12.25L67.72 12.25L67.72 12.25Q70.41 8.82 71.71 8.82L71.71 8.82L71.71 8.82Q72.07 8.82 72.49 9.06L72.49 9.06L72.49 9.06Q72.91 9.30 73.23 9.70L73.23 9.70L73.23 9.70Q72.80 10.18 72.34 10.85L72.34 10.85L72.34 10.85Q71.88 11.52 71.49 12.20L71.49 12.20L71.49 12.20Q71.11 12.88 70.86 13.46L70.86 13.46L70.86 13.46Q70.62 14.04 70.62 14.32L70.62 14.32L70.62 14.32Q70.62 14.46 70.66 14.51L70.66 14.51L70.66 14.51Q70.70 14.56 70.84 14.56L70.84 14.56L70.84 14.56Q71.05 14.56 71.18 14.50L71.18 14.50L71.18 14.50Q71.30 14.45 71.33 14.45L71.33 14.45L71.33 14.45Q71.40 14.56 71.41 14.60L71.41 14.60L71.41 14.60Q71.43 14.64 71.43 14.67L71.43 14.67L71.43 14.67Q71.43 14.73 71.26 14.83L71.26 14.83L71.26 14.83Q71.09 14.94 70.86 15.04L70.86 15.04L70.86 15.04Q70.63 15.15 70.41 15.23L70.41 15.23L70.41 15.23Q70.18 15.32 70.07 15.32L70.07 15.32L70.07 15.32Q69.93 15.32 69.79 15.24L69.79 15.24L69.79 15.24Q69.65 15.16 69.55 15.04L69.55 15.04L69.55 15.04Q69.44 14.91 69.38 14.76L69.38 14.76L69.38 14.76Q69.31 14.60 69.31 14.43L69.31 14.43L69.31 14.43Q69.31 14.22 69.43 13.81L69.43 13.81L69.43 13.81Q69.55 13.40 69.76 12.85L69.76 12.85L69.76 12.85Q69.97 12.29 70.27 11.63L70.27 11.63L70.27 11.63Q70.56 10.98 70.90 10.29L70.90 10.29L70.90 10.29Q70.90 10.23 70.84 10.23L70.84 10.23L70.84 10.23Q70.80 10.23 70.62 10.35L70.62 10.35L70.62 10.35Q70.45 10.46 70.29 10.57L70.29 10.57L70.29 10.57Q69.79 10.95 69.28 11.50L69.28 11.50L69.28 11.50Q68.77 12.05 68.28 12.71L68.28 12.71L68.28 12.71Q67.80 13.37 67.38 14.11L67.38 14.11L67.38 14.11Q66.95 14.84 66.64 15.58L66.64 15.58L66.64 15.58Q66.60 15.68 66.51 15.76L66.51 15.76L66.51 15.76Q66.43 15.85 66.37 15.85L66.37 15.85L66.37 15.85Q66.33 15.85 66.26 15.75L66.26 15.75L66.26 15.75Q66.18 15.65 66.12 15.51L66.12 15.51L66.12 15.51Q66.05 15.36 66.00 15.20L66.00 15.20L66.00 15.20Q65.94 15.05 65.94 14.94ZM85.20 9.38L85.20 9.38L85.20 9.38Q85.15 10.25 84.90 10.87L84.90 10.87L84.90 10.87Q84.64 11.49 84.17 11.96L84.17 11.96L84.17 11.96Q83.71 12.43 83.03 12.81L83.03 12.81L83.03 12.81Q82.36 13.19 81.47 13.54L81.47 13.54L81.47 13.54Q81.47 13.62 81.46 13.71L81.46 13.71L81.46 13.71Q81.45 13.80 81.45 13.90L81.45 13.90L81.45 13.90Q81.45 14.08 81.48 14.28L81.48 14.28L81.48 14.28Q81.51 14.48 81.58 14.64L81.58 14.64L81.58 14.64Q81.65 14.81 81.77 14.92L81.77 14.92L81.77 14.92Q81.90 15.02 82.10 15.02L82.10 15.02L82.10 15.02Q82.47 15.02 82.84 14.85L82.84 14.85L82.84 14.85Q83.20 14.69 83.53 14.44L83.53 14.44L83.53 14.44Q83.86 14.20 84.15 13.91L84.15 13.91L84.15 13.91Q84.43 13.62 84.66 13.38L84.66 13.38L84.66 13.38Q84.80 13.51 84.90 13.62L84.90 13.62L84.90 13.62Q84.27 14.46 83.52 15.02L83.52 15.02L83.52 15.02Q82.77 15.57 82.10 15.72L82.10 15.72L82.10 15.72Q81.13 15.61 80.59 15.02L80.59 15.02L80.59 15.02Q80.05 14.42 80.05 13.58L80.05 13.58L80.05 13.58Q80.05 13.01 80.21 12.41L80.21 12.41L80.21 12.41Q80.37 11.82 80.66 11.26L80.66 11.26L80.66 11.26Q80.95 10.71 81.33 10.22L81.33 10.22L81.33 10.22Q81.72 9.73 82.16 9.37L82.16 9.37L82.16 9.37Q82.60 9.00 83.07 8.79L83.07 8.79L83.07 8.79Q83.54 8.58 84 8.58L84 8.58L84 8.58Q84.64 8.67 85.20 9.38ZM84.24 9.84L84.24 9.84L84.24 9.84Q83.86 9.90 83.45 10.15L83.45 10.15L83.45 10.15Q83.05 10.40 82.69 10.82L82.69 10.82L82.69 10.82Q82.33 11.24 82.04 11.80L82.04 11.80L82.04 11.80Q81.75 12.36 81.58 13.01L81.58 13.01L81.58 13.01Q82.70 12.45 83.44 11.63L83.44 11.63L83.44 11.63Q84.18 10.81 84.24 9.84ZM92.51 14.90L92.51 14.90L92.51 14.90Q92.58 14.49 92.76 13.82L92.76 13.82L92.76 13.82Q92.93 13.16 93.17 12.41L93.17 12.41L93.17 12.41Q93.41 11.66 93.67 10.91L93.67 10.91L93.67 10.91Q93.94 10.15 94.19 9.55L94.19 9.55L94.19 9.55Q94.37 9.11 94.51 8.87L94.51 8.87L94.51 8.87Q94.65 8.62 94.82 8.46L94.82 8.46L94.82 8.46Q95.02 8.48 95.23 8.55L95.23 8.55L95.23 8.55Q95.44 8.62 95.63 8.72L95.63 8.72L95.63 8.72Q95.83 8.82 95.98 8.93L95.98 8.93L95.98 8.93Q96.14 9.03 96.22 9.13L96.22 9.13L96.22 9.13Q95.84 9.58 95.56 10.15L95.56 10.15L95.56 10.15Q95.27 10.72 94.98 11.62L94.98 11.62L94.98 11.62Q95.73 10.95 96.31 10.33L96.31 10.33L96.31 10.33Q96.89 9.72 97.40 8.96L97.40 8.96L97.40 8.96Q97.48 8.89 97.69 8.89L97.69 8.89L97.69 8.89Q97.89 8.89 98.07 8.95L98.07 8.95L98.07 8.95Q98.25 9.02 98.32 9.13L98.32 9.13L98.32 9.13Q98.07 9.80 98.07 10.46L98.07 10.46L98.07 10.46Q98.07 11.07 98.25 11.38L98.25 11.38L98.25 11.38Q98.24 11.47 98.06 11.70L98.06 11.70L98.06 11.70Q97.89 11.94 97.68 12.15L97.68 12.15L97.68 12.15Q97.30 11.96 97.01 11.61L97.01 11.61L97.01 11.61Q96.71 11.27 96.57 10.86L96.57 10.86L96.57 10.86Q95.91 11.33 95.45 11.77L95.45 11.77L95.45 11.77Q94.99 12.21 94.66 12.75L94.66 12.75L94.66 12.75Q94.33 13.29 94.10 13.99L94.10 13.99L94.10 13.99Q93.87 14.69 93.66 15.65L93.66 15.65L93.66 15.65Q93.53 15.64 93.36 15.56L93.36 15.56L93.36 15.56Q93.18 15.48 93.01 15.37L93.01 15.37L93.01 15.37Q92.83 15.26 92.69 15.13L92.69 15.13L92.69 15.13Q92.55 15.01 92.51 14.90ZM115.95 14.60L115.95 14.60L115.95 14.60Q115.95 14.32 116.01 13.82L116.01 13.82L116.01 13.82Q116.07 13.31 116.18 12.73L116.18 12.73L116.18 12.73Q116.28 12.14 116.42 11.52L116.42 11.52L116.42 11.52Q116.55 10.91 116.69 10.42L116.69 10.42L116.69 10.42Q116.87 9.76 117.26 9.40L117.26 9.40L117.26 9.40Q117.64 9.04 118.22 9.04L118.22 9.04L118.22 9.04Q118.52 9.04 118.83 9.14L118.83 9.14L118.83 9.14Q119.13 9.24 119.18 9.39L119.18 9.39L119.18 9.39Q118.78 9.73 118.53 10.23L118.53 10.23L118.53 10.23Q118.29 10.72 118.14 11.29L118.14 11.29L118.14 11.29Q117.99 11.86 117.91 12.45L117.91 12.45L117.91 12.45Q117.84 13.05 117.75 13.57L117.75 13.57L117.75 13.57Q118.22 12.95 118.63 12.45L118.63 12.45L118.63 12.45Q119.04 11.96 119.36 11.66L119.36 11.66L119.36 11.66Q119.80 11.26 119.95 10.98L119.95 10.98L119.95 10.98Q120.11 10.71 120.22 10.39L120.22 10.39L120.22 10.39Q120.30 10.14 120.42 9.80L120.42 9.80L120.42 9.80Q120.54 9.46 120.82 9.18L120.82 9.18L120.82 9.18Q120.88 9.17 121.06 9.17L121.06 9.17L121.06 9.17Q121.20 9.17 121.36 9.18L121.36 9.18L121.36 9.18Q121.52 9.20 121.66 9.24L121.66 9.24L121.66 9.24Q121.80 9.28 121.90 9.34L121.90 9.34L121.90 9.34Q122.00 9.39 122.01 9.48L122.01 9.48L122.01 9.48Q121.79 9.77 121.59 10.39L121.59 10.39L121.59 10.39Q121.39 11.02 121.24 11.76L121.24 11.76L121.24 11.76Q121.09 12.50 120.96 13.24L120.96 13.24L120.96 13.24Q120.83 13.97 120.74 14.48L120.74 14.48L120.74 14.48Q120.79 14.45 120.99 14.25L120.99 14.25L120.99 14.25Q121.18 14.06 121.43 13.76L121.43 13.76L121.43 13.76Q121.67 13.47 121.95 13.12L121.95 13.12L121.95 13.12Q122.22 12.77 122.43 12.43L122.43 12.43L122.43 12.43Q122.70 12.03 122.87 11.67L122.87 11.67L122.87 11.67Q123.05 11.31 123.18 10.91L123.18 10.91L123.18 10.91Q123.31 10.50 123.42 10.00L123.42 10.00L123.42 10.00Q123.54 9.51 123.66 8.82L123.66 8.82L123.66 8.82Q123.75 8.71 124.03 8.63L124.03 8.63L124.03 8.63Q124.32 8.55 124.56 8.55L124.56 8.55L124.56 8.55Q124.77 8.55 124.87 8.62L124.87 8.62L124.87 8.62Q124.80 9.41 124.61 10.02L124.61 10.02L124.61 10.02Q124.42 10.64 124.10 11.22L124.10 11.22L124.10 11.22Q123.77 11.80 123.30 12.38L123.30 12.38L123.30 12.38Q122.82 12.96 122.18 13.65L122.18 13.65L122.18 13.65Q121.91 13.93 121.60 14.27L121.60 14.27L121.60 14.27Q121.28 14.60 120.98 14.89L120.98 14.89L120.98 14.89Q120.68 15.18 120.42 15.37L120.42 15.37L120.42 15.37Q120.16 15.57 120.02 15.57L120.02 15.57L120.02 15.57Q119.70 15.57 119.49 15.32L119.49 15.32L119.49 15.32Q119.28 15.06 119.28 14.67L119.28 14.67L119.28 14.67Q119.28 14.27 119.31 13.96L119.31 13.96L119.31 13.96Q119.35 13.66 119.43 13.33L119.43 13.33L119.43 13.33Q119.52 13.02 119.57 12.81L119.57 12.81L119.57 12.81Q119.62 12.60 119.65 12.45L119.65 12.45L119.65 12.45Q119.69 12.29 119.70 12.18L119.70 12.18L119.70 12.18Q119.71 12.07 119.73 11.96L119.73 11.96L119.73 11.96Q119.62 12.01 119.43 12.19L119.43 12.19L119.43 12.19Q119.25 12.36 119.06 12.59L119.06 12.59L119.06 12.59Q118.86 12.82 118.66 13.06L118.66 13.06L118.66 13.06Q118.47 13.30 118.34 13.47L118.34 13.47L118.34 13.47Q118.08 13.83 117.88 14.11L117.88 14.11L117.88 14.11Q117.68 14.39 117.51 14.64L117.51 14.64L117.51 14.64Q117.33 14.90 117.17 15.15L117.17 15.15L117.17 15.15Q117.00 15.41 116.77 15.71L116.77 15.71L116.77 15.71Q116.33 15.57 116.14 15.29L116.14 15.29L116.14 15.29Q115.95 15.01 115.95 14.60ZM136.72 9.38L136.72 9.38L136.72 9.38Q136.67 10.25 136.42 10.87L136.42 10.87L136.42 10.87Q136.16 11.49 135.69 11.96L135.69 11.96L135.69 11.96Q135.23 12.43 134.55 12.81L134.55 12.81L134.55 12.81Q133.88 13.19 132.99 13.54L132.99 13.54L132.99 13.54Q132.99 13.62 132.98 13.71L132.98 13.71L132.98 13.71Q132.97 13.80 132.97 13.90L132.97 13.90L132.97 13.90Q132.97 14.08 133.00 14.28L133.00 14.28L133.00 14.28Q133.03 14.48 133.10 14.64L133.10 14.64L133.10 14.64Q133.17 14.81 133.29 14.92L133.29 14.92L133.29 14.92Q133.42 15.02 133.62 15.02L133.62 15.02L133.62 15.02Q133.99 15.02 134.36 14.85L134.36 14.85L134.36 14.85Q134.72 14.69 135.05 14.44L135.05 14.44L135.05 14.44Q135.38 14.20 135.67 13.91L135.67 13.91L135.67 13.91Q135.95 13.62 136.18 13.38L136.18 13.38L136.18 13.38Q136.32 13.51 136.42 13.62L136.42 13.62L136.42 13.62Q135.79 14.46 135.04 15.02L135.04 15.02L135.04 15.02Q134.29 15.57 133.62 15.72L133.62 15.72L133.62 15.72Q132.65 15.61 132.11 15.02L132.11 15.02L132.11 15.02Q131.57 14.42 131.57 13.58L131.57 13.58L131.57 13.58Q131.57 13.01 131.73 12.41L131.73 12.41L131.73 12.41Q131.89 11.82 132.18 11.26L132.18 11.26L132.18 11.26Q132.47 10.71 132.85 10.22L132.85 10.22L132.85 10.22Q133.24 9.73 133.68 9.37L133.68 9.37L133.68 9.37Q134.12 9.00 134.59 8.79L134.59 8.79L134.59 8.79Q135.06 8.58 135.52 8.58L135.52 8.58L135.52 8.58Q136.16 8.67 136.72 9.38ZM135.76 9.84L135.76 9.84L135.76 9.84Q135.38 9.90 134.97 10.15L134.97 10.15L134.97 10.15Q134.57 10.40 134.21 10.82L134.21 10.82L134.21 10.82Q133.85 11.24 133.56 11.80L133.56 11.80L133.56 11.80Q133.27 12.36 133.10 13.01L133.10 13.01L133.10 13.01Q134.22 12.45 134.96 11.63L134.96 11.63L134.96 11.63Q135.70 10.81 135.76 9.84ZM159.53 9.52L159.53 9.52L159.53 9.52Q159.67 9.52 159.86 9.57L159.86 9.57L159.86 9.57Q160.05 9.62 160.20 9.70L160.20 9.70L160.20 9.70Q160.36 9.77 160.46 9.86L160.46 9.86L160.46 9.86Q160.57 9.94 160.57 10.01L160.57 10.01L160.57 10.01Q160.29 10.60 160.05 11.19L160.05 11.19L160.05 11.19Q159.81 11.79 159.64 12.33L159.64 12.33L159.64 12.33Q159.47 12.88 159.38 13.36L159.38 13.36L159.38 13.36Q159.29 13.83 159.29 14.18L159.29 14.18L159.29 14.18Q159.29 14.57 159.38 14.83L159.38 14.83L159.38 14.83Q159.46 15.09 159.66 15.20L159.66 15.20L159.66 15.20Q159.49 15.32 159.22 15.39L159.22 15.39L159.22 15.39Q158.96 15.46 158.75 15.46L158.75 15.46L158.75 15.46Q157.99 15.46 157.99 14.42L157.99 14.42L157.99 14.42Q157.99 13.62 158.52 12.24L158.52 12.24L158.52 12.24Q158.24 12.88 157.88 13.45L157.88 13.45L157.88 13.45Q157.51 14.01 157.14 14.45L157.14 14.45L157.14 14.45Q156.76 14.88 156.37 15.15L156.37 15.15L156.37 15.15Q155.99 15.43 155.67 15.48L155.67 15.48L155.67 15.48Q155.15 15.46 154.83 14.99L154.83 14.99L154.83 14.99Q154.50 14.52 154.50 13.79L154.50 13.79L154.50 13.79Q154.50 13.01 154.84 12.14L154.84 12.14L154.84 12.14Q155.18 11.27 155.70 10.53L155.70 10.53L155.70 10.53Q156.23 9.79 156.84 9.29L156.84 9.29L156.84 9.29Q157.46 8.79 158.03 8.76L158.03 8.76L158.03 8.76Q158.17 8.81 158.35 8.93L158.35 8.93L158.35 8.93Q158.52 9.06 158.68 9.23L158.68 9.23L158.68 9.23Q158.84 9.39 158.96 9.57L158.96 9.57L158.96 9.57Q159.07 9.74 159.08 9.87L159.08 9.87L159.08 9.87Q158.52 9.95 157.93 10.42L157.93 10.42L157.93 10.42Q157.33 10.88 156.85 11.53L156.85 11.53L156.85 11.53Q156.37 12.18 156.06 12.92L156.06 12.92L156.06 12.92Q155.75 13.66 155.75 14.31L155.75 14.31L155.75 14.31Q155.75 14.57 155.95 14.64L155.95 14.64L155.95 14.64Q156.35 14.56 156.88 13.95L156.88 13.95L156.88 13.95Q157.42 13.34 158.17 12.07L158.17 12.07L158.17 12.07Q158.31 11.82 158.49 11.51L158.49 11.51L158.49 11.51Q158.66 11.20 158.84 10.86L158.84 10.86L158.84 10.86Q159.03 10.53 159.20 10.18L159.20 10.18L159.20 10.18Q159.38 9.84 159.53 9.52ZM167.94 14.90L167.94 14.90L167.94 14.90Q168.01 14.49 168.19 13.82L168.19 13.82L168.19 13.82Q168.36 13.16 168.60 12.41L168.60 12.41L168.60 12.41Q168.84 11.66 169.11 10.91L169.11 10.91L169.11 10.91Q169.37 10.15 169.62 9.55L169.62 9.55L169.62 9.55Q169.81 9.11 169.95 8.87L169.95 8.87L169.95 8.87Q170.09 8.62 170.25 8.46L170.25 8.46L170.25 8.46Q170.45 8.48 170.66 8.55L170.66 8.55L170.66 8.55Q170.87 8.62 171.07 8.72L171.07 8.72L171.07 8.72Q171.26 8.82 171.42 8.93L171.42 8.93L171.42 8.93Q171.57 9.03 171.65 9.13L171.65 9.13L171.65 9.13Q171.28 9.58 170.99 10.15L170.99 10.15L170.99 10.15Q170.70 10.72 170.41 11.62L170.41 11.62L170.41 11.62Q171.16 10.95 171.75 10.33L171.75 10.33L171.75 10.33Q172.33 9.72 172.83 8.96L172.83 8.96L172.83 8.96Q172.91 8.89 173.12 8.89L173.12 8.89L173.12 8.89Q173.32 8.89 173.50 8.95L173.50 8.95L173.50 8.95Q173.68 9.02 173.75 9.13L173.75 9.13L173.75 9.13Q173.50 9.80 173.50 10.46L173.50 10.46L173.50 10.46Q173.50 11.07 173.68 11.38L173.68 11.38L173.68 11.38Q173.67 11.47 173.50 11.70L173.50 11.70L173.50 11.70Q173.32 11.94 173.11 12.15L173.11 12.15L173.11 12.15Q172.73 11.96 172.44 11.61L172.44 11.61L172.44 11.61Q172.14 11.27 172.00 10.86L172.00 10.86L172.00 10.86Q171.35 11.33 170.88 11.77L170.88 11.77L170.88 11.77Q170.42 12.21 170.09 12.75L170.09 12.75L170.09 12.75Q169.76 13.29 169.53 13.99L169.53 13.99L169.53 13.99Q169.30 14.69 169.09 15.65L169.09 15.65L169.09 15.65Q168.97 15.64 168.79 15.56L168.79 15.56L168.79 15.56Q168.62 15.48 168.44 15.37L168.44 15.37L168.44 15.37Q168.27 15.26 168.13 15.13L168.13 15.13L168.13 15.13Q167.99 15.01 167.94 14.90ZM185.93 9.38L185.93 9.38L185.93 9.38Q185.88 10.25 185.63 10.87L185.63 10.87L185.63 10.87Q185.37 11.49 184.91 11.96L184.91 11.96L184.91 11.96Q184.44 12.43 183.76 12.81L183.76 12.81L183.76 12.81Q183.09 13.19 182.20 13.54L182.20 13.54L182.20 13.54Q182.20 13.62 182.19 13.71L182.19 13.71L182.19 13.71Q182.18 13.80 182.18 13.90L182.18 13.90L182.18 13.90Q182.18 14.08 182.21 14.28L182.21 14.28L182.21 14.28Q182.24 14.48 182.31 14.64L182.31 14.64L182.31 14.64Q182.38 14.81 182.50 14.92L182.50 14.92L182.50 14.92Q182.63 15.02 182.83 15.02L182.83 15.02L182.83 15.02Q183.20 15.02 183.57 14.85L183.57 14.85L183.57 14.85Q183.93 14.69 184.26 14.44L184.26 14.44L184.26 14.44Q184.59 14.20 184.88 13.91L184.88 13.91L184.88 13.91Q185.16 13.62 185.39 13.38L185.39 13.38L185.39 13.38Q185.53 13.51 185.63 13.62L185.63 13.62L185.63 13.62Q185.00 14.46 184.25 15.02L184.25 15.02L184.25 15.02Q183.50 15.57 182.83 15.72L182.83 15.72L182.83 15.72Q181.86 15.61 181.32 15.02L181.32 15.02L181.32 15.02Q180.78 14.42 180.78 13.58L180.78 13.58L180.78 13.58Q180.78 13.01 180.94 12.41L180.94 12.41L180.94 12.41Q181.10 11.82 181.39 11.26L181.39 11.26L181.39 11.26Q181.68 10.71 182.06 10.22L182.06 10.22L182.06 10.22Q182.45 9.73 182.89 9.37L182.89 9.37L182.89 9.37Q183.33 9.00 183.80 8.79L183.80 8.79L183.80 8.79Q184.27 8.58 184.73 8.58L184.73 8.58L184.73 8.58Q185.37 8.67 185.93 9.38ZM184.97 9.84L184.97 9.84L184.97 9.84Q184.59 9.90 184.18 10.15L184.18 10.15L184.18 10.15Q183.78 10.40 183.42 10.82L183.42 10.82L183.42 10.82Q183.06 11.24 182.77 11.80L182.77 11.80L182.77 11.80Q182.48 12.36 182.31 13.01L182.31 13.01L182.31 13.01Q183.43 12.45 184.17 11.63L184.17 11.63L184.17 11.63Q184.91 10.81 184.97 9.84ZM208.74 9.52L208.74 9.52L208.74 9.52Q208.88 9.52 209.07 9.57L209.07 9.57L209.07 9.57Q209.26 9.62 209.41 9.70L209.41 9.70L209.41 9.70Q209.57 9.77 209.67 9.86L209.67 9.86L209.67 9.86Q209.78 9.94 209.78 10.01L209.78 10.01L209.78 10.01Q209.50 10.60 209.26 11.19L209.26 11.19L209.26 11.19Q209.02 11.79 208.85 12.33L208.85 12.33L208.85 12.33Q208.68 12.88 208.59 13.36L208.59 13.36L208.59 13.36Q208.50 13.83 208.50 14.18L208.50 14.18L208.50 14.18Q208.50 14.57 208.59 14.83L208.59 14.83L208.59 14.83Q208.67 15.09 208.87 15.20L208.87 15.20L208.87 15.20Q208.70 15.32 208.43 15.39L208.43 15.39L208.43 15.39Q208.17 15.46 207.96 15.46L207.96 15.46L207.96 15.46Q207.20 15.46 207.20 14.42L207.20 14.42L207.20 14.42Q207.20 13.62 207.73 12.24L207.73 12.24L207.73 12.24Q207.45 12.88 207.09 13.45L207.09 13.45L207.09 13.45Q206.72 14.01 206.35 14.45L206.35 14.45L206.35 14.45Q205.97 14.88 205.58 15.15L205.58 15.15L205.58 15.15Q205.20 15.43 204.88 15.48L204.88 15.48L204.88 15.48Q204.36 15.46 204.04 14.99L204.04 14.99L204.04 14.99Q203.71 14.52 203.71 13.79L203.71 13.79L203.71 13.79Q203.71 13.01 204.05 12.14L204.05 12.14L204.05 12.14Q204.39 11.27 204.91 10.53L204.91 10.53L204.91 10.53Q205.44 9.79 206.05 9.29L206.05 9.29L206.05 9.29Q206.67 8.79 207.24 8.76L207.24 8.76L207.24 8.76Q207.38 8.81 207.56 8.93L207.56 8.93L207.56 8.93Q207.73 9.06 207.89 9.23L207.89 9.23L207.89 9.23Q208.05 9.39 208.17 9.57L208.17 9.57L208.17 9.57Q208.28 9.74 208.29 9.87L208.29 9.87L208.29 9.87Q207.73 9.95 207.14 10.42L207.14 10.42L207.14 10.42Q206.54 10.88 206.06 11.53L206.06 11.53L206.06 11.53Q205.58 12.18 205.27 12.92L205.27 12.92L205.27 12.92Q204.96 13.66 204.96 14.31L204.96 14.31L204.96 14.31Q204.96 14.57 205.16 14.64L205.16 14.64L205.16 14.64Q205.56 14.56 206.09 13.95L206.09 13.95L206.09 13.95Q206.63 13.34 207.38 12.07L207.38 12.07L207.38 12.07Q207.52 11.82 207.70 11.51L207.70 11.51L207.70 11.51Q207.87 11.20 208.05 10.86L208.05 10.86L208.05 10.86Q208.24 10.53 208.41 10.18L208.41 10.18L208.41 10.18Q208.59 9.84 208.74 9.52ZM232.65 9.60L232.65 9.60L232.65 9.60Q232.64 9.87 232.56 10.16L232.56 10.16L232.56 10.16Q232.48 10.44 232.37 10.68L232.37 10.68L232.37 10.68Q232.26 10.91 232.13 11.06L232.13 11.06L232.13 11.06Q232.01 11.21 231.90 11.21L231.90 11.21L231.90 11.21Q231.74 11.20 231.71 11.00L231.71 11.00L231.71 11.00Q231.71 10.96 231.75 10.87L231.75 10.87L231.75 10.87Q231.78 10.78 231.83 10.67L231.83 10.67L231.83 10.67Q231.87 10.56 231.90 10.44L231.90 10.44L231.90 10.44Q231.94 10.33 231.94 10.25L231.94 10.25L231.94 10.25Q231.94 10.05 231.85 9.92L231.85 9.92L231.85 9.92Q231.76 9.79 231.60 9.79L231.60 9.79L231.60 9.79Q231.04 9.79 230.75 10.49L230.75 10.49L230.75 10.49Q230.45 11.19 230.45 12.54L230.45 12.54L230.45 12.54Q230.45 12.68 230.47 12.71L230.47 12.71L230.47 12.71Q230.76 12.70 230.99 12.69L230.99 12.69L230.99 12.69Q231.22 12.68 231.45 12.68L231.45 12.68L231.45 12.68Q231.46 12.71 231.46 12.80L231.46 12.80L231.46 12.80Q231.46 12.92 231.41 12.98L231.41 12.98L231.41 12.98Q231.08 13.05 230.90 13.10L230.90 13.10L230.90 13.10Q230.71 13.15 230.61 13.19L230.61 13.19L230.61 13.19Q230.51 13.23 230.49 13.28L230.49 13.28L230.49 13.28Q230.47 13.33 230.47 13.41L230.47 13.41L230.47 13.41Q230.47 13.52 230.47 13.64L230.47 13.64L230.47 13.64Q230.48 13.75 230.48 13.92L230.48 13.92L230.48 13.92Q230.48 15.09 229.84 15.81L229.84 15.81L229.84 15.81Q229.21 16.52 228.07 16.63L228.07 16.63L228.07 16.63Q227.88 16.62 227.67 16.52L227.67 16.52L227.67 16.52Q227.46 16.42 227.27 16.27L227.27 16.27L227.27 16.27Q227.08 16.11 226.94 15.93L226.94 15.93L226.94 15.93Q226.80 15.74 226.74 15.54L226.74 15.54L226.74 15.54Q226.74 15.01 226.97 14.53L226.97 14.53L226.97 14.53Q227.19 14.04 227.58 13.67L227.58 13.67L227.58 13.67Q227.96 13.30 228.49 13.07L228.49 13.07L228.49 13.07Q229.01 12.84 229.63 12.80L229.63 12.80L229.63 12.80Q229.63 12.45 229.56 12.11L229.56 12.11L229.56 12.11Q229.49 11.77 229.41 11.46L229.41 11.46L229.41 11.46Q229.33 11.14 229.26 10.84L229.26 10.84L229.26 10.84Q229.19 10.54 229.19 10.25L229.19 10.25L229.19 10.25Q229.19 9.87 229.35 9.50L229.35 9.50L229.35 9.50Q229.50 9.13 229.75 8.81L229.75 8.81L229.75 8.81Q230.01 8.50 230.34 8.27L230.34 8.27L230.34 8.27Q230.68 8.05 231.04 7.97L231.04 7.97L231.04 7.97Q231.20 8.01 231.46 8.21L231.46 8.21L231.46 8.21Q231.71 8.41 231.97 8.67L231.97 8.67L231.97 8.67Q232.22 8.92 232.41 9.18L232.41 9.18L232.41 9.18Q232.61 9.44 232.65 9.60ZM228.03 15.99L228.03 15.99L228.03 15.99Q228.37 15.85 228.67 15.58L228.67 15.58L228.67 15.58Q228.97 15.32 229.19 14.98L229.19 14.98L229.19 14.98Q229.42 14.64 229.55 14.27L229.55 14.27L229.55 14.27Q229.68 13.89 229.68 13.52L229.68 13.52L229.68 13.52Q229.40 13.57 229.07 13.78L229.07 13.78L229.07 13.78Q228.73 14 228.44 14.30L228.44 14.30L228.44 14.30Q228.14 14.60 227.95 14.92L227.95 14.92L227.95 14.92Q227.75 15.25 227.75 15.48L227.75 15.48L227.75 15.48Q227.75 15.79 228.03 15.99ZM241.29 9.81L240.49 9.81L240.49 9.81Q240.42 9.73 240.37 9.46L240.37 9.46L240.37 9.46Q240.31 9.18 240.31 8.99L240.31 8.99L240.31 8.99Q240.67 9.02 241.01 9.04L241.01 9.04L241.01 9.04Q241.35 9.06 241.63 9.07L241.63 9.07L241.63 9.07Q241.84 8.65 242.08 8.24L242.08 8.24L242.08 8.24Q242.33 7.83 242.56 7.48L242.56 7.48L242.56 7.48Q242.79 7.14 242.99 6.90L242.99 6.90L242.99 6.90Q243.19 6.66 243.31 6.59L243.31 6.59L243.31 6.59Q243.45 6.59 243.66 6.64L243.66 6.64L243.66 6.64Q243.88 6.69 244.10 6.77L244.10 6.77L244.10 6.77Q244.33 6.85 244.51 6.93L244.51 6.93L244.51 6.93Q244.69 7.01 244.76 7.10L244.76 7.10L244.76 7.10Q244.34 7.63 244.04 8.09L244.04 8.09L244.04 8.09Q243.74 8.54 243.39 9.13L243.39 9.13L243.39 9.13Q243.67 9.13 243.96 9.11L243.96 9.11L243.96 9.11Q244.24 9.10 244.54 9.07L244.54 9.07L244.54 9.07Q244.61 9.14 244.65 9.25L244.65 9.25L244.65 9.25Q244.69 9.35 244.69 9.46L244.69 9.46L244.69 9.46Q244.01 9.72 243.03 9.74L243.03 9.74L243.03 9.74Q242.68 10.42 242.40 11.08L242.40 11.08L242.40 11.08Q242.13 11.75 241.94 12.36L241.94 12.36L241.94 12.36Q241.75 12.98 241.65 13.52L241.65 13.52L241.65 13.52Q241.54 14.07 241.54 14.50L241.54 14.50L241.54 14.50Q241.54 15.12 242.00 15.19L242.00 15.19L242.00 15.19Q242.42 15.13 242.80 14.98L242.80 14.98L242.80 14.98Q243.18 14.83 243.47 14.59L243.47 14.59L243.47 14.59Q243.56 14.71 243.57 14.80L243.57 14.80L243.57 14.80Q243.49 14.92 243.28 15.09L243.28 15.09L243.28 15.09Q243.08 15.26 242.84 15.42L242.84 15.42L242.84 15.42Q242.61 15.58 242.38 15.69L242.38 15.69L242.38 15.69Q242.16 15.81 242.05 15.82L242.05 15.82L242.05 15.82Q241.70 15.81 241.35 15.67L241.35 15.67L241.35 15.67Q241.00 15.53 240.71 15.32L240.71 15.32L240.71 15.32Q240.42 15.11 240.24 14.85L240.24 14.85L240.24 14.85Q240.06 14.59 240.06 14.34L240.06 14.34L240.06 14.34Q240.06 14 240.15 13.49L240.15 13.49L240.15 13.49Q240.24 12.98 240.41 12.38L240.41 12.38L240.41 12.38Q240.58 11.77 240.80 11.12L240.80 11.12L240.80 11.12Q241.02 10.46 241.29 9.81L241.29 9.81ZM251.26 14.90L251.26 14.90L251.26 14.90Q251.33 14.49 251.50 13.82L251.50 13.82L251.50 13.82Q251.68 13.16 251.92 12.41L251.92 12.41L251.92 12.41Q252.15 11.66 252.42 10.91L252.42 10.91L252.42 10.91Q252.69 10.15 252.94 9.55L252.94 9.55L252.94 9.55Q253.12 9.11 253.26 8.87L253.26 8.87L253.26 8.87Q253.40 8.62 253.57 8.46L253.57 8.46L253.57 8.46Q253.76 8.48 253.97 8.55L253.97 8.55L253.97 8.55Q254.18 8.62 254.38 8.72L254.38 8.72L254.38 8.72Q254.58 8.82 254.73 8.93L254.73 8.93L254.73 8.93Q254.88 9.03 254.97 9.13L254.97 9.13L254.97 9.13Q254.59 9.58 254.30 10.15L254.30 10.15L254.30 10.15Q254.02 10.72 253.72 11.62L253.72 11.62L253.72 11.62Q254.48 10.95 255.06 10.33L255.06 10.33L255.06 10.33Q255.64 9.72 256.14 8.96L256.14 8.96L256.14 8.96Q256.23 8.89 256.44 8.89L256.44 8.89L256.44 8.89Q256.63 8.89 256.82 8.95L256.82 8.95L256.82 8.95Q257.00 9.02 257.07 9.13L257.07 9.13L257.07 9.13Q256.82 9.80 256.82 10.46L256.82 10.46L256.82 10.46Q256.82 11.07 257.00 11.38L257.00 11.38L257.00 11.38Q256.98 11.47 256.81 11.70L256.81 11.70L256.81 11.70Q256.63 11.94 256.42 12.15L256.42 12.15L256.42 12.15Q256.05 11.96 255.75 11.61L255.75 11.61L255.75 11.61Q255.46 11.27 255.32 10.86L255.32 10.86L255.32 10.86Q254.66 11.33 254.20 11.77L254.20 11.77L254.20 11.77Q253.74 12.21 253.41 12.75L253.41 12.75L253.41 12.75Q253.08 13.29 252.85 13.99L252.85 13.99L252.85 13.99Q252.62 14.69 252.41 15.65L252.41 15.65L252.41 15.65Q252.28 15.64 252.10 15.56L252.10 15.56L252.10 15.56Q251.93 15.48 251.75 15.37L251.75 15.37L251.75 15.37Q251.58 15.26 251.44 15.13L251.44 15.13L251.44 15.13Q251.30 15.01 251.26 14.90ZM265.89 15.67L265.89 15.67L265.89 15.67Q265.09 15.58 264.61 14.97L264.61 14.97L264.61 14.97Q264.14 14.35 264.14 13.40L264.14 13.40L264.14 13.40Q264.14 12.84 264.31 12.24L264.31 12.24L264.31 12.24Q264.47 11.63 264.78 11.07L264.78 11.07L264.78 11.07Q265.09 10.50 265.51 10.00L265.51 10.00L265.51 10.00Q265.93 9.49 266.42 9.13L266.42 9.13L266.42 9.13Q267.19 8.55 267.86 8.55L267.86 8.55L267.86 8.55Q268.31 8.79 268.74 9.55L268.74 9.55L268.74 9.55Q268.81 9.55 268.87 9.54L268.87 9.54L268.87 9.54Q268.93 9.53 269.00 9.53L269.00 9.53L269.00 9.53Q269.74 9.53 269.74 10.85L269.74 10.85L269.74 10.85Q269.74 11.73 269.45 12.52L269.45 12.52L269.45 12.52Q269.16 13.31 268.65 13.96L268.65 13.96L268.65 13.96Q268.14 14.60 267.44 15.04L267.44 15.04L267.44 15.04Q266.73 15.48 265.89 15.67ZM266.60 11.26L266.60 11.26L266.60 11.26Q266.36 11.58 266.15 11.96L266.15 11.96L266.15 11.96Q265.94 12.33 265.79 12.72L265.79 12.72L265.79 12.72Q265.64 13.10 265.55 13.46L265.55 13.46L265.55 13.46Q265.47 13.82 265.47 14.10L265.47 14.10L265.47 14.10Q265.47 14.43 265.58 14.74L265.58 14.74L265.58 14.74Q265.69 15.05 265.83 15.09L265.83 15.09L265.83 15.09Q266.46 14.95 266.99 14.57L266.99 14.57L266.99 14.57Q267.51 14.18 267.90 13.61L267.90 13.61L267.90 13.61Q268.28 13.03 268.50 12.31L268.50 12.31L268.50 12.31Q268.72 11.58 268.72 10.75L268.72 10.75L268.72 10.75Q268.72 10.39 268.67 10.18L268.67 10.18L268.67 10.18Q268.63 9.97 268.53 9.81L268.53 9.81L268.53 9.81Q267.92 10.00 267.44 10.40L267.44 10.40L267.44 10.40Q266.95 10.81 266.60 11.26ZM279.68 8.39L279.68 8.39L279.68 8.39Q280.04 8.50 280.36 8.88L280.36 8.88L280.36 8.88Q280.69 9.27 280.84 9.73L280.84 9.73L280.84 9.73Q280.69 10.11 280.36 10.64L280.36 10.64L280.36 10.64Q280.04 11.17 279.72 11.72L279.72 11.72L279.72 11.72Q279.40 12.28 279.14 12.78L279.14 12.78L279.14 12.78Q278.88 13.27 278.84 13.59L278.84 13.59L278.84 13.59Q279.06 13.36 279.33 13.04L279.33 13.04L279.33 13.04Q279.61 12.73 279.87 12.41L279.87 12.41L279.87 12.41Q280.13 12.10 280.35 11.84L280.35 11.84L280.35 11.84Q280.57 11.58 280.70 11.45L280.70 11.45L280.70 11.45Q280.97 11.17 281.33 10.80L281.33 10.80L281.33 10.80Q281.69 10.43 282.09 10.10L282.09 10.10L282.09 10.10Q282.49 9.77 282.90 9.54L282.90 9.54L282.90 9.54Q283.30 9.31 283.64 9.31L283.64 9.31L283.64 9.31Q284.00 9.31 284.25 9.55L284.25 9.55L284.25 9.55Q284.49 9.80 284.63 10.07L284.63 10.07L284.63 10.07Q284.63 10.09 284.53 10.14L284.53 10.14L284.53 10.14Q284.42 10.19 284.23 10.42L284.23 10.42L284.23 10.42Q284.03 10.67 283.79 11.11L283.79 11.11L283.79 11.11Q283.54 11.55 283.31 12.06L283.31 12.06L283.31 12.06Q283.08 12.57 282.93 13.10L282.93 13.10L282.93 13.10Q282.77 13.64 282.77 14.07L282.77 14.07L282.77 14.07Q282.77 14.42 282.86 14.52L282.86 14.52L282.86 14.52Q282.95 14.62 283.12 14.62L283.12 14.62L283.12 14.62Q283.28 14.62 283.44 14.55L283.44 14.55L283.44 14.55Q283.61 14.48 283.71 14.48L283.71 14.48L283.71 14.48Q283.77 14.50 283.80 14.60L283.80 14.60L283.80 14.60Q283.84 14.69 283.84 14.76L283.84 14.76L283.84 14.76Q283.72 14.85 283.57 14.95L283.57 14.95L283.57 14.95Q283.42 15.05 283.25 15.13L283.25 15.13L283.25 15.13Q283.08 15.22 282.92 15.27L282.92 15.27L282.92 15.27Q282.76 15.33 282.63 15.33L282.63 15.33L282.63 15.33Q282.23 15.33 281.97 15.21L281.97 15.21L281.97 15.21Q281.71 15.09 281.56 14.90L281.56 14.90L281.56 14.90Q281.41 14.70 281.36 14.43L281.36 14.43L281.36 14.43Q281.30 14.15 281.30 13.85L281.30 13.85L281.30 13.85Q281.30 13.68 281.33 13.47L281.33 13.47L281.33 13.47Q281.36 13.26 281.44 12.97L281.44 12.97L281.44 12.97Q281.53 12.68 281.68 12.29L281.68 12.29L281.68 12.29Q281.83 11.89 282.07 11.33L282.07 11.33L282.07 11.33Q282.04 11.33 281.69 11.52L281.69 11.52L281.69 11.52Q281.34 11.72 280.94 12.12L280.94 12.12L280.94 12.12Q280.28 12.75 279.75 13.37L279.75 13.37L279.75 13.37Q279.23 13.99 278.68 14.74L278.68 14.74L278.68 14.74Q278.38 15.18 278.14 15.48L278.14 15.48L278.14 15.48Q277.91 15.78 277.75 15.88L277.75 15.88L277.75 15.88Q277.45 15.71 277.31 15.41L277.31 15.41L277.31 15.41Q277.17 15.11 277.10 14.78L277.10 14.78L277.10 14.78Q277.10 14.52 277.18 14.11L277.18 14.11L277.18 14.11Q277.26 13.71 277.39 13.21L277.39 13.21L277.39 13.21Q277.52 12.71 277.72 12.17L277.72 12.17L277.72 12.17Q277.91 11.62 278.15 11.07L278.15 11.07L278.15 11.07Q278.68 9.84 279.12 9.14L279.12 9.14L279.12 9.14Q279.57 8.44 279.68 8.39ZM289.14 19.35L289.14 19.35L289.14 19.35Q289.14 19.26 289.20 19.19L289.20 19.19L289.20 19.19Q289.25 19.12 289.32 19.05L289.32 19.05L289.32 19.05Q289.49 19.21 289.61 19.29L289.61 19.29L289.61 19.29Q289.73 19.38 289.83 19.43L289.83 19.43L289.83 19.43Q289.94 19.49 290.05 19.50L290.05 19.50L290.05 19.50Q290.16 19.52 290.32 19.52L290.32 19.52L290.32 19.52Q291.05 19.52 291.70 19.13L291.70 19.13L291.70 19.13Q292.36 18.75 292.94 18.02L292.94 18.02L292.94 18.02Q293.52 17.29 294.00 16.24L294.00 16.24L294.00 16.24Q294.48 15.19 294.84 13.86L294.84 13.86L294.84 13.86Q294.67 14.03 294.43 14.23L294.43 14.23L294.43 14.23Q294.18 14.43 293.92 14.62L293.92 14.62L293.92 14.62Q293.65 14.80 293.39 14.95L293.39 14.95L293.39 14.95Q293.13 15.11 292.95 15.18L292.95 15.18L292.95 15.18Q292.71 15.13 292.51 14.97L292.51 14.97L292.51 14.97Q292.31 14.81 292.15 14.57L292.15 14.57L292.15 14.57Q292.00 14.34 291.91 14.04L291.91 14.04L291.91 14.04Q291.83 13.73 291.83 13.40L291.83 13.40L291.83 13.40Q291.83 12.85 292.03 12.28L292.03 12.28L292.03 12.28Q292.24 11.70 292.57 11.15L292.57 11.15L292.57 11.15Q292.91 10.60 293.36 10.11L293.36 10.11L293.36 10.11Q293.82 9.62 294.33 9.25L294.33 9.25L294.33 9.25Q294.84 8.89 295.36 8.67L295.36 8.67L295.36 8.67Q295.89 8.46 296.39 8.46L296.39 8.46L296.39 8.46Q296.88 8.46 297.13 8.66L297.13 8.66L297.13 8.66Q297.37 8.86 297.49 9.35L297.49 9.35L297.49 9.35Q297.33 9.27 297.09 9.27L297.09 9.27L297.09 9.27Q296.76 9.27 296.32 9.53L296.32 9.53L296.32 9.53Q295.88 9.80 295.42 10.23L295.42 10.23L295.42 10.23Q294.97 10.65 294.52 11.21L294.52 11.21L294.52 11.21Q294.07 11.76 293.73 12.33L293.73 12.33L293.73 12.33Q293.38 12.91 293.17 13.45L293.17 13.45L293.17 13.45Q292.95 14 292.95 14.43L292.95 14.43L292.95 14.43Q292.95 14.53 292.96 14.55L292.96 14.55L292.96 14.55Q292.98 14.57 293.01 14.57L293.01 14.57L293.01 14.57Q293.13 14.57 293.35 14.43L293.35 14.43L293.35 14.43Q293.57 14.29 293.84 14.08L293.84 14.08L293.84 14.08Q294.11 13.86 294.41 13.57L294.41 13.57L294.41 13.57Q294.70 13.29 294.97 12.99L294.97 12.99L294.97 12.99Q295.57 12.32 296.06 11.49L296.06 11.49L296.06 11.49Q296.56 10.65 296.86 9.87L296.86 9.87L296.86 9.87Q297.23 9.90 297.53 10.00L297.53 10.00L297.53 10.00Q297.82 10.09 297.93 10.21L297.93 10.21L297.93 10.21Q297.46 11.30 297.17 12.04L297.17 12.04L297.17 12.04Q296.88 12.78 296.67 13.36L296.67 13.36L296.67 13.36Q296.30 14.36 295.97 15.20L295.97 15.20L295.97 15.20Q295.64 16.03 295.29 16.74L295.29 16.74L295.29 16.74Q294.95 17.44 294.55 18.05L294.55 18.05L294.55 18.05Q294.15 18.66 293.65 19.22L293.65 19.22L293.65 19.22Q293.41 19.49 293.11 19.69L293.11 19.69L293.11 19.69Q292.81 19.89 292.49 20.03L292.49 20.03L292.49 20.03Q292.18 20.17 291.88 20.24L291.88 20.24L291.88 20.24Q291.58 20.31 291.33 20.31L291.33 20.31L291.33 20.31Q290.99 20.31 290.64 20.24L290.64 20.24L290.64 20.24Q290.29 20.16 289.99 20.03L289.99 20.03L289.99 20.03Q289.69 19.89 289.46 19.72L289.46 19.72L289.46 19.72Q289.24 19.54 289.14 19.35ZM310.28 9.38L310.28 9.38L310.28 9.38Q310.23 10.25 309.97 10.87L309.97 10.87L309.97 10.87Q309.72 11.49 309.25 11.96L309.25 11.96L309.25 11.96Q308.78 12.43 308.11 12.81L308.11 12.81L308.11 12.81Q307.44 13.19 306.54 13.54L306.54 13.54L306.54 13.54Q306.54 13.62 306.54 13.71L306.54 13.71L306.54 13.71Q306.53 13.80 306.53 13.90L306.53 13.90L306.53 13.90Q306.53 14.08 306.56 14.28L306.56 14.28L306.56 14.28Q306.59 14.48 306.66 14.64L306.66 14.64L306.66 14.64Q306.73 14.81 306.85 14.92L306.85 14.92L306.85 14.92Q306.98 15.02 307.17 15.02L307.17 15.02L307.17 15.02Q307.55 15.02 307.92 14.85L307.92 14.85L307.92 14.85Q308.28 14.69 308.61 14.44L308.61 14.44L308.61 14.44Q308.94 14.20 309.22 13.91L309.22 13.91L309.22 13.91Q309.51 13.62 309.74 13.38L309.74 13.38L309.74 13.38Q309.88 13.51 309.97 13.62L309.97 13.62L309.97 13.62Q309.34 14.46 308.59 15.02L308.59 15.02L308.59 15.02Q307.85 15.57 307.17 15.72L307.17 15.72L307.17 15.72Q306.21 15.61 305.67 15.02L305.67 15.02L305.67 15.02Q305.13 14.42 305.13 13.58L305.13 13.58L305.13 13.58Q305.13 13.01 305.29 12.41L305.29 12.41L305.29 12.41Q305.45 11.82 305.74 11.26L305.74 11.26L305.74 11.26Q306.03 10.71 306.41 10.22L306.41 10.22L306.41 10.22Q306.80 9.73 307.24 9.37L307.24 9.37L307.24 9.37Q307.68 9.00 308.15 8.79L308.15 8.79L308.15 8.79Q308.62 8.58 309.08 8.58L309.08 8.58L309.08 8.58Q309.72 8.67 310.28 9.38ZM309.32 9.84L309.32 9.84L309.32 9.84Q308.94 9.90 308.53 10.15L308.53 10.15L308.53 10.15Q308.13 10.40 307.77 10.82L307.77 10.82L307.77 10.82Q307.41 11.24 307.12 11.80L307.12 11.80L307.12 11.80Q306.82 12.36 306.66 13.01L306.66 13.01L306.66 13.01Q307.78 12.45 308.52 11.63L308.52 11.63L308.52 11.63Q309.26 10.81 309.32 9.84ZM317.59 14.90L317.59 14.90L317.59 14.90Q317.66 14.49 317.83 13.82L317.83 13.82L317.83 13.82Q318.01 13.16 318.25 12.41L318.25 12.41L318.25 12.41Q318.49 11.66 318.75 10.91L318.75 10.91L318.75 10.91Q319.02 10.15 319.27 9.55L319.27 9.55L319.27 9.55Q319.45 9.11 319.59 8.87L319.59 8.87L319.59 8.87Q319.73 8.62 319.90 8.46L319.90 8.46L319.90 8.46Q320.10 8.48 320.31 8.55L320.31 8.55L320.31 8.55Q320.52 8.62 320.71 8.72L320.71 8.72L320.71 8.72Q320.91 8.82 321.06 8.93L321.06 8.93L321.06 8.93Q321.22 9.03 321.30 9.13L321.30 9.13L321.30 9.13Q320.92 9.58 320.63 10.15L320.63 10.15L320.63 10.15Q320.35 10.72 320.05 11.62L320.05 11.62L320.05 11.62Q320.81 10.95 321.39 10.33L321.39 10.33L321.39 10.33Q321.97 9.72 322.48 8.96L322.48 8.96L322.48 8.96Q322.56 8.89 322.77 8.89L322.77 8.89L322.77 8.89Q322.97 8.89 323.15 8.95L323.15 8.95L323.15 8.95Q323.33 9.02 323.40 9.13L323.40 9.13L323.40 9.13Q323.15 9.80 323.15 10.46L323.15 10.46L323.15 10.46Q323.15 11.07 323.33 11.38L323.33 11.38L323.33 11.38Q323.32 11.47 323.14 11.70L323.14 11.70L323.14 11.70Q322.97 11.94 322.76 12.15L322.76 12.15L322.76 12.15Q322.38 11.96 322.08 11.61L322.08 11.61L322.08 11.61Q321.79 11.27 321.65 10.86L321.65 10.86L321.65 10.86Q320.99 11.33 320.53 11.77L320.53 11.77L320.53 11.77Q320.07 12.21 319.74 12.75L319.74 12.75L319.74 12.75Q319.41 13.29 319.18 13.99L319.18 13.99L319.18 13.99Q318.95 14.69 318.74 15.65L318.74 15.65L318.74 15.65Q318.61 15.64 318.44 15.56L318.44 15.56L318.44 15.56Q318.26 15.48 318.09 15.37L318.09 15.37L318.09 15.37Q317.91 15.26 317.77 15.13L317.77 15.13L317.77 15.13Q317.63 15.01 317.59 14.90ZM340.98 12.71L340.98 12.71L340.98 12.71Q340.98 11.91 341.31 11.16L341.31 11.16L341.31 11.16Q341.64 10.42 342.18 9.84L342.18 9.84L342.18 9.84Q342.72 9.25 343.41 8.90L343.41 8.90L343.41 8.90Q344.11 8.54 344.85 8.54L344.85 8.54L344.85 8.54Q345.58 8.54 345.97 8.90L345.97 8.90L345.97 8.90Q346.36 9.27 346.36 9.94L346.36 9.94L346.36 9.94Q346.36 10.26 346.27 10.56L346.27 10.56L346.27 10.56Q346.18 10.86 346.03 11.10L346.03 11.10L346.03 11.10Q345.88 11.34 345.69 11.49L345.69 11.49L345.69 11.49Q345.49 11.63 345.30 11.63L345.30 11.63L345.30 11.63Q345.13 11.63 344.95 11.53L344.95 11.53L344.95 11.53Q344.78 11.42 344.67 11.26L344.67 11.26L344.67 11.26Q345.60 10.40 345.60 9.70L345.60 9.70L345.60 9.70Q345.60 9.30 345.28 9.30L345.28 9.30L345.28 9.30Q345.00 9.30 344.58 9.56L344.58 9.56L344.58 9.56Q344.16 9.83 343.77 10.26L343.77 10.26L343.77 10.26Q343.17 10.93 342.85 11.75L342.85 11.75L342.85 11.75Q342.54 12.57 342.54 13.47L342.54 13.47L342.54 13.47Q342.54 14.60 343.04 14.83L343.04 14.83L343.04 14.83Q343.25 14.80 343.53 14.70L343.53 14.70L343.53 14.70Q343.81 14.60 344.13 14.44L344.13 14.44L344.13 14.44Q344.46 14.28 344.80 14.07L344.80 14.07L344.80 14.07Q345.14 13.86 345.46 13.62L345.46 13.62L345.46 13.62Q345.52 13.66 345.56 13.75L345.56 13.75L345.56 13.75Q345.60 13.83 345.60 13.90L345.60 13.90L345.60 13.90Q345.37 14.20 345.06 14.48L345.06 14.48L345.06 14.48Q344.75 14.76 344.41 14.99L344.41 14.99L344.41 14.99Q344.08 15.22 343.76 15.38L343.76 15.38L343.76 15.38Q343.45 15.54 343.21 15.58L343.21 15.58L343.21 15.58Q342.75 15.54 342.34 15.29L342.34 15.29L342.34 15.29Q341.94 15.05 341.63 14.66L341.63 14.66L341.63 14.66Q341.33 14.27 341.16 13.76L341.16 13.76L341.16 13.76Q340.98 13.26 340.98 12.71ZM355.43 15.67L355.43 15.67L355.43 15.67Q354.63 15.58 354.16 14.97L354.16 14.97L354.16 14.97Q353.68 14.35 353.68 13.40L353.68 13.40L353.68 13.40Q353.68 12.84 353.85 12.24L353.85 12.24L353.85 12.24Q354.02 11.63 354.33 11.07L354.33 11.07L354.33 11.07Q354.63 10.50 355.05 10.00L355.05 10.00L355.05 10.00Q355.47 9.49 355.96 9.13L355.96 9.13L355.96 9.13Q356.73 8.55 357.41 8.55L357.41 8.55L357.41 8.55Q357.85 8.79 358.29 9.55L358.29 9.55L358.29 9.55Q358.36 9.55 358.41 9.54L358.41 9.54L358.41 9.54Q358.47 9.53 358.54 9.53L358.54 9.53L358.54 9.53Q359.28 9.53 359.28 10.85L359.28 10.85L359.28 10.85Q359.28 11.73 358.99 12.52L358.99 12.52L358.99 12.52Q358.71 13.31 358.20 13.96L358.20 13.96L358.20 13.96Q357.69 14.60 356.98 15.04L356.98 15.04L356.98 15.04Q356.27 15.48 355.43 15.67ZM356.15 11.26L356.15 11.26L356.15 11.26Q355.91 11.58 355.70 11.96L355.70 11.96L355.70 11.96Q355.49 12.33 355.33 12.72L355.33 12.72L355.33 12.72Q355.18 13.10 355.10 13.46L355.10 13.46L355.10 13.46Q355.01 13.82 355.01 14.10L355.01 14.10L355.01 14.10Q355.01 14.43 355.12 14.74L355.12 14.74L355.12 14.74Q355.24 15.05 355.38 15.09L355.38 15.09L355.38 15.09Q356.01 14.95 356.53 14.57L356.53 14.57L356.53 14.57Q357.06 14.18 357.44 13.61L357.44 13.61L357.44 13.61Q357.83 13.03 358.04 12.31L358.04 12.31L358.04 12.31Q358.26 11.58 358.26 10.75L358.26 10.75L358.26 10.75Q358.26 10.39 358.22 10.18L358.22 10.18L358.22 10.18Q358.18 9.97 358.08 9.81L358.08 9.81L358.08 9.81Q357.46 10.00 356.98 10.40L356.98 10.40L356.98 10.40Q356.50 10.81 356.15 11.26ZM375.05 10.88L375.05 10.88L375.05 10.88Q374.82 10.89 374.50 11.16L374.50 11.16L374.50 11.16Q374.18 11.44 373.81 11.87L373.81 11.87L373.81 11.87Q373.44 12.29 373.04 12.81L373.04 12.81L373.04 12.81Q372.64 13.33 372.27 13.84L372.27 13.84L372.27 13.84Q371.90 14.35 371.57 14.80L371.57 14.80L371.57 14.80Q371.25 15.25 371.03 15.51L371.03 15.51L371.03 15.51Q370.72 15.39 370.50 15.14L370.50 15.14L370.50 15.14Q370.27 14.90 370.17 14.53L370.17 14.53L370.17 14.53Q370.24 14.10 370.37 13.63L370.37 13.63L370.37 13.63Q370.50 13.16 370.70 12.66L370.70 12.66L370.70 12.66Q370.90 12.15 371.20 11.60L371.20 11.60L371.20 11.60Q371.50 11.05 371.94 10.43L371.94 10.43L371.94 10.43Q371.73 10.44 371.36 10.73L371.36 10.73L371.36 10.73Q371.00 11.02 370.58 11.47L370.58 11.47L370.58 11.47Q370.16 11.93 369.71 12.50L369.71 12.50L369.71 12.50Q369.26 13.06 368.87 13.61L368.87 13.61L368.87 13.61Q368.35 14.34 368.01 14.88L368.01 14.88L368.01 14.88Q367.67 15.43 367.51 15.53L367.51 15.53L367.51 15.53Q367.15 15.26 367.01 14.95L367.01 14.95L367.01 14.95Q366.87 14.64 366.80 14.27L366.80 14.27L366.80 14.27Q366.81 13.93 366.90 13.43L366.90 13.43L366.90 13.43Q367.00 12.92 367.16 12.39L367.16 12.39L367.16 12.39Q367.49 11.37 368.00 10.36L368.00 10.36L368.00 10.36Q368.51 9.35 368.98 8.51L368.98 8.51L368.98 8.51Q369.38 8.60 369.69 8.78L369.69 8.78L369.69 8.78Q370.01 8.96 370.36 9.31L370.36 9.31L370.36 9.31Q370.22 9.74 369.92 10.23L369.92 10.23L369.92 10.23Q369.63 10.71 369.31 11.24L369.31 11.24L369.31 11.24Q368.98 11.77 368.72 12.33L368.72 12.33L368.72 12.33Q368.45 12.89 368.37 13.47L368.37 13.47L368.37 13.47Q368.76 12.91 369.30 12.18L369.30 12.18L369.30 12.18Q369.84 11.45 370.40 10.81L370.40 10.81L370.40 10.81Q370.97 10.16 371.53 9.72L371.53 9.72L371.53 9.72Q372.09 9.27 372.54 9.27L372.54 9.27L372.54 9.27Q372.71 9.27 372.90 9.32L372.90 9.32L372.90 9.32Q373.10 9.38 373.27 9.46L373.27 9.46L373.27 9.46Q373.44 9.55 373.55 9.63L373.55 9.63L373.55 9.63Q373.66 9.70 373.67 9.74L373.67 9.74L373.67 9.74Q373.60 10.02 373.34 10.51L373.34 10.51L373.34 10.51Q373.09 10.99 372.79 11.52L372.79 11.52L372.79 11.52Q372.50 12.05 372.25 12.55L372.25 12.55L372.25 12.55Q371.99 13.05 371.95 13.34L371.95 13.34L371.95 13.34Q372.64 12.40 373.24 11.64L373.24 11.64L373.24 11.64Q373.84 10.88 374.37 10.33L374.37 10.33L374.37 10.33Q374.91 9.79 375.36 9.49L375.36 9.49L375.36 9.49Q375.82 9.20 376.22 9.20L376.22 9.20L376.22 9.20Q376.50 9.20 376.75 9.34L376.75 9.34L376.75 9.34Q376.99 9.49 377.09 9.77L377.09 9.77L377.09 9.77Q376.96 10.19 376.68 10.78L376.68 10.78L376.68 10.78Q376.39 11.37 376.10 12.02L376.10 12.02L376.10 12.02Q375.80 12.67 375.57 13.30L375.57 13.30L375.57 13.30Q375.34 13.93 375.34 14.43L375.34 14.43L375.34 14.43Q375.34 14.73 375.42 14.82L375.42 14.82L375.42 14.82Q375.51 14.91 375.66 14.91L375.66 14.91L375.66 14.91Q375.83 14.91 375.98 14.85L375.98 14.85L375.98 14.85Q376.12 14.78 376.19 14.78L376.19 14.78L376.19 14.78Q376.28 14.84 376.29 14.92L376.29 14.92L376.29 14.92Q376.31 15.01 376.31 15.08L376.31 15.08L376.31 15.08Q376.03 15.30 375.73 15.45L375.73 15.45L375.73 15.45Q375.44 15.60 375.07 15.60L375.07 15.60L375.07 15.60Q374.74 15.60 374.52 15.48L374.52 15.48L374.52 15.48Q374.30 15.37 374.16 15.18L374.16 15.18L374.16 15.18Q374.02 14.98 373.97 14.73L373.97 14.73L373.97 14.73Q373.91 14.48 373.91 14.18L373.91 14.18L373.91 14.18Q373.91 13.71 374.04 13.24L374.04 13.24L374.04 13.24Q374.16 12.77 374.34 12.34L374.34 12.34L374.34 12.34Q374.51 11.91 374.71 11.54L374.71 11.54L374.71 11.54Q374.91 11.17 375.05 10.88ZM392.76 10.88L392.76 10.88L392.76 10.88Q392.53 10.89 392.21 11.16L392.21 11.16L392.21 11.16Q391.89 11.44 391.52 11.87L391.52 11.87L391.52 11.87Q391.15 12.29 390.75 12.81L390.75 12.81L390.75 12.81Q390.35 13.33 389.98 13.84L389.98 13.84L389.98 13.84Q389.61 14.35 389.28 14.80L389.28 14.80L389.28 14.80Q388.96 15.25 388.74 15.51L388.74 15.51L388.74 15.51Q388.43 15.39 388.21 15.14L388.21 15.14L388.21 15.14Q387.98 14.90 387.88 14.53L387.88 14.53L387.88 14.53Q387.95 14.10 388.08 13.63L388.08 13.63L388.08 13.63Q388.21 13.16 388.41 12.66L388.41 12.66L388.41 12.66Q388.61 12.15 388.91 11.60L388.91 11.60L388.91 11.60Q389.21 11.05 389.65 10.43L389.65 10.43L389.65 10.43Q389.44 10.44 389.07 10.73L389.07 10.73L389.07 10.73Q388.71 11.02 388.29 11.47L388.29 11.47L388.29 11.47Q387.87 11.93 387.42 12.50L387.42 12.50L387.42 12.50Q386.97 13.06 386.58 13.61L386.58 13.61L386.58 13.61Q386.06 14.34 385.72 14.88L385.72 14.88L385.72 14.88Q385.38 15.43 385.22 15.53L385.22 15.53L385.22 15.53Q384.86 15.26 384.72 14.95L384.72 14.95L384.72 14.95Q384.58 14.64 384.51 14.27L384.51 14.27L384.51 14.27Q384.52 13.93 384.61 13.43L384.61 13.43L384.61 13.43Q384.71 12.92 384.87 12.39L384.87 12.39L384.87 12.39Q385.20 11.37 385.71 10.36L385.71 10.36L385.71 10.36Q386.22 9.35 386.69 8.51L386.69 8.51L386.69 8.51Q387.09 8.60 387.40 8.78L387.40 8.78L387.40 8.78Q387.72 8.96 388.07 9.31L388.07 9.31L388.07 9.31Q387.93 9.74 387.63 10.23L387.63 10.23L387.63 10.23Q387.34 10.71 387.02 11.24L387.02 11.24L387.02 11.24Q386.69 11.77 386.43 12.33L386.43 12.33L386.43 12.33Q386.16 12.89 386.08 13.47L386.08 13.47L386.08 13.47Q386.47 12.91 387.01 12.18L387.01 12.18L387.01 12.18Q387.55 11.45 388.11 10.81L388.11 10.81L388.11 10.81Q388.68 10.16 389.24 9.72L389.24 9.72L389.24 9.72Q389.80 9.27 390.25 9.27L390.25 9.27L390.25 9.27Q390.42 9.27 390.61 9.32L390.61 9.32L390.61 9.32Q390.81 9.38 390.98 9.46L390.98 9.46L390.98 9.46Q391.15 9.55 391.26 9.63L391.26 9.63L391.26 9.63Q391.37 9.70 391.38 9.74L391.38 9.74L391.38 9.74Q391.31 10.02 391.05 10.51L391.05 10.51L391.05 10.51Q390.80 10.99 390.50 11.52L390.50 11.52L390.50 11.52Q390.21 12.05 389.96 12.55L389.96 12.55L389.96 12.55Q389.70 13.05 389.66 13.34L389.66 13.34L389.66 13.34Q390.35 12.40 390.95 11.64L390.95 11.64L390.95 11.64Q391.55 10.88 392.08 10.33L392.08 10.33L392.08 10.33Q392.62 9.79 393.07 9.49L393.07 9.49L393.07 9.49Q393.53 9.20 393.93 9.20L393.93 9.20L393.93 9.20Q394.21 9.20 394.46 9.34L394.46 9.34L394.46 9.34Q394.70 9.49 394.80 9.77L394.80 9.77L394.80 9.77Q394.67 10.19 394.39 10.78L394.39 10.78L394.39 10.78Q394.10 11.37 393.81 12.02L393.81 12.02L393.81 12.02Q393.51 12.67 393.28 13.30L393.28 13.30L393.28 13.30Q393.05 13.93 393.05 14.43L393.05 14.43L393.05 14.43Q393.05 14.73 393.13 14.82L393.13 14.82L393.13 14.82Q393.22 14.91 393.37 14.91L393.37 14.91L393.37 14.91Q393.54 14.91 393.69 14.85L393.69 14.85L393.69 14.85Q393.83 14.78 393.90 14.78L393.90 14.78L393.90 14.78Q393.99 14.84 394.00 14.92L394.00 14.92L394.00 14.92Q394.02 15.01 394.02 15.08L394.02 15.08L394.02 15.08Q393.74 15.30 393.44 15.45L393.44 15.45L393.44 15.45Q393.15 15.60 392.78 15.60L392.78 15.60L392.78 15.60Q392.45 15.60 392.23 15.48L392.23 15.48L392.23 15.48Q392.01 15.37 391.87 15.18L391.87 15.18L391.87 15.18Q391.73 14.98 391.68 14.73L391.68 14.73L391.68 14.73Q391.62 14.48 391.62 14.18L391.62 14.18L391.62 14.18Q391.62 13.71 391.75 13.24L391.75 13.24L391.75 13.24Q391.87 12.77 392.05 12.34L392.05 12.34L392.05 12.34Q392.22 11.91 392.42 11.54L392.42 11.54L392.42 11.54Q392.62 11.17 392.76 10.88ZM406.18 14.87L406.18 14.87L406.18 14.87Q405.92 14.64 405.82 14.31L405.82 14.31L405.82 14.31Q405.73 13.97 405.73 13.73L405.73 13.73L405.73 13.73Q405.73 13.44 405.80 13.23L405.80 13.23L405.80 13.23Q405.75 13.23 405.55 13.45L405.55 13.45L405.55 13.45Q405.36 13.68 405.12 13.99L405.12 13.99L405.12 13.99Q404.89 14.29 404.67 14.59L404.67 14.59L404.67 14.59Q404.45 14.88 404.33 15.02L404.33 15.02L404.33 15.02Q404.15 15.22 403.99 15.33L403.99 15.33L403.99 15.33Q403.83 15.44 403.73 15.46L403.73 15.46L403.73 15.46Q403.51 15.44 403.26 15.37L403.26 15.37L403.26 15.37Q403.02 15.29 402.80 15.15L402.80 15.15L402.80 15.15Q402.58 15.01 402.42 14.81L402.42 14.81L402.42 14.81Q402.26 14.62 402.21 14.36L402.21 14.36L402.21 14.36Q402.21 13.97 402.23 13.72L402.23 13.72L402.23 13.72Q402.25 13.47 402.32 13.17L402.32 13.17L402.32 13.17Q402.44 12.64 402.69 11.97L402.69 11.97L402.69 11.97Q402.93 11.30 403.26 10.65L403.26 10.65L403.26 10.65Q403.58 10.00 403.98 9.43L403.98 9.43L403.98 9.43Q404.38 8.86 404.82 8.54L404.82 8.54L404.82 8.54Q404.95 8.54 405.12 8.56L405.12 8.56L405.12 8.56Q405.29 8.58 405.46 8.64L405.46 8.64L405.46 8.64Q405.64 8.69 405.80 8.77L405.80 8.77L405.80 8.77Q405.96 8.85 406.07 8.97L406.07 8.97L406.07 8.97Q405.94 9.11 405.43 9.91L405.43 9.91L405.43 9.91Q404.92 10.71 404.29 12.21L404.29 12.21L404.29 12.21Q404.22 12.36 404.12 12.66L404.12 12.66L404.12 12.66Q404.03 12.95 403.93 13.27L403.93 13.27L403.93 13.27Q403.83 13.59 403.77 13.90L403.77 13.90L403.77 13.90Q403.70 14.21 403.70 14.39L403.70 14.39L403.70 14.39Q403.70 14.50 403.74 14.56L403.74 14.56L403.74 14.56Q403.77 14.62 403.80 14.64L403.80 14.64L403.80 14.64Q404.01 14.56 404.33 14.18L404.33 14.18L404.33 14.18Q404.66 13.80 405.23 13.02L405.23 13.02L405.23 13.02Q405.37 12.82 405.56 12.57L405.56 12.57L405.56 12.57Q405.75 12.32 405.94 12.03L405.94 12.03L405.94 12.03Q406.14 11.75 406.31 11.44L406.31 11.44L406.31 11.44Q406.49 11.13 406.60 10.82L406.60 10.82L406.60 10.82Q406.66 10.65 406.75 10.42L406.75 10.42L406.75 10.42Q406.84 10.19 406.97 9.94L406.97 9.94L406.97 9.94Q407.11 9.69 407.28 9.43L407.28 9.43L407.28 9.43Q407.46 9.17 407.69 8.95L407.69 8.95L407.69 8.95Q407.88 8.95 408.09 8.99L408.09 8.99L408.09 8.99Q408.30 9.03 408.48 9.09L408.48 9.09L408.48 9.09Q408.67 9.16 408.81 9.23L408.81 9.23L408.81 9.23Q408.95 9.31 409.02 9.39L409.02 9.39L409.02 9.39Q408.77 10.01 408.46 10.61L408.46 10.61L408.46 10.61Q408.16 11.21 407.89 11.79L407.89 11.79L407.89 11.79Q407.62 12.38 407.44 12.95L407.44 12.95L407.44 12.95Q407.26 13.52 407.26 14.07L407.26 14.07L407.26 14.07Q407.26 14.36 407.31 14.58L407.31 14.58L407.31 14.58Q407.36 14.80 407.41 14.95L407.41 14.95L407.41 14.95Q407.47 15.09 407.52 15.19L407.52 15.19L407.52 15.19Q407.57 15.29 407.57 15.36L407.57 15.36L407.57 15.36Q407.57 15.37 407.54 15.40L407.54 15.40L407.54 15.40Q407.53 15.41 407.51 15.41L407.51 15.41L407.51 15.41Q407.41 15.41 407.26 15.37L407.26 15.37L407.26 15.37Q407.11 15.33 406.92 15.25L406.92 15.25L406.92 15.25Q406.73 15.18 406.54 15.08L406.54 15.08L406.54 15.08Q406.35 14.98 406.18 14.87ZM418.56 8.39L418.56 8.39L418.56 8.39Q418.92 8.50 419.24 8.88L419.24 8.88L419.24 8.88Q419.57 9.27 419.72 9.73L419.72 9.73L419.72 9.73Q419.57 10.11 419.24 10.64L419.24 10.64L419.24 10.64Q418.92 11.17 418.60 11.72L418.60 11.72L418.60 11.72Q418.28 12.28 418.02 12.78L418.02 12.78L418.02 12.78Q417.76 13.27 417.72 13.59L417.72 13.59L417.72 13.59Q417.94 13.36 418.21 13.04L418.21 13.04L418.21 13.04Q418.49 12.73 418.75 12.41L418.75 12.41L418.75 12.41Q419.01 12.10 419.23 11.84L419.23 11.84L419.23 11.84Q419.45 11.58 419.58 11.45L419.58 11.45L419.58 11.45Q419.85 11.17 420.21 10.80L420.21 10.80L420.21 10.80Q420.57 10.43 420.97 10.10L420.97 10.10L420.97 10.10Q421.37 9.77 421.78 9.54L421.78 9.54L421.78 9.54Q422.18 9.31 422.52 9.31L422.52 9.31L422.52 9.31Q422.88 9.31 423.13 9.55L423.13 9.55L423.13 9.55Q423.37 9.80 423.51 10.07L423.51 10.07L423.51 10.07Q423.51 10.09 423.41 10.14L423.41 10.14L423.41 10.14Q423.30 10.19 423.11 10.42L423.11 10.42L423.11 10.42Q422.91 10.67 422.67 11.11L422.67 11.11L422.67 11.11Q422.42 11.55 422.19 12.06L422.19 12.06L422.19 12.06Q421.96 12.57 421.81 13.10L421.81 13.10L421.81 13.10Q421.65 13.64 421.65 14.07L421.65 14.07L421.65 14.07Q421.65 14.42 421.74 14.52L421.74 14.52L421.74 14.52Q421.83 14.62 422.00 14.62L422.00 14.62L422.00 14.62Q422.16 14.62 422.32 14.55L422.32 14.55L422.32 14.55Q422.49 14.48 422.59 14.48L422.59 14.48L422.59 14.48Q422.65 14.50 422.68 14.60L422.68 14.60L422.68 14.60Q422.72 14.69 422.72 14.76L422.72 14.76L422.72 14.76Q422.60 14.85 422.45 14.95L422.45 14.95L422.45 14.95Q422.30 15.05 422.13 15.13L422.13 15.13L422.13 15.13Q421.96 15.22 421.80 15.27L421.80 15.27L421.80 15.27Q421.64 15.33 421.51 15.33L421.51 15.33L421.51 15.33Q421.11 15.33 420.85 15.21L420.85 15.21L420.85 15.21Q420.59 15.09 420.44 14.90L420.44 14.90L420.44 14.90Q420.29 14.70 420.24 14.43L420.24 14.43L420.24 14.43Q420.18 14.15 420.18 13.85L420.18 13.85L420.18 13.85Q420.18 13.68 420.21 13.47L420.21 13.47L420.21 13.47Q420.24 13.26 420.32 12.97L420.32 12.97L420.32 12.97Q420.41 12.68 420.56 12.29L420.56 12.29L420.56 12.29Q420.71 11.89 420.95 11.33L420.95 11.33L420.95 11.33Q420.92 11.33 420.57 11.52L420.57 11.52L420.57 11.52Q420.22 11.72 419.82 12.12L419.82 12.12L419.82 12.12Q419.16 12.75 418.63 13.37L418.63 13.37L418.63 13.37Q418.11 13.99 417.56 14.74L417.56 14.74L417.56 14.74Q417.26 15.18 417.02 15.48L417.02 15.48L417.02 15.48Q416.79 15.78 416.63 15.88L416.63 15.88L416.63 15.88Q416.33 15.71 416.19 15.41L416.19 15.41L416.19 15.41Q416.05 15.11 415.98 14.78L415.98 14.78L415.98 14.78Q415.98 14.52 416.06 14.11L416.06 14.11L416.06 14.11Q416.14 13.71 416.27 13.21L416.27 13.21L416.27 13.21Q416.40 12.71 416.60 12.17L416.60 12.17L416.60 12.17Q416.79 11.62 417.03 11.07L417.03 11.07L417.03 11.07Q417.56 9.84 418.00 9.14L418.00 9.14L418.00 9.14Q418.45 8.44 418.56 8.39ZM430.86 14.24L430.86 14.24L430.86 14.24Q430.86 14.11 430.88 13.92L430.88 13.92L430.88 13.92Q430.91 13.73 430.96 13.42L430.96 13.42L430.96 13.42Q431.02 13.10 431.11 12.66L431.11 12.66L431.11 12.66Q431.20 12.21 431.34 11.58L431.34 11.58L431.34 11.58Q431.37 11.44 431.47 11.13L431.47 11.13L431.47 11.13Q431.56 10.82 431.72 10.48L431.72 10.48L431.72 10.48Q431.89 10.14 432.12 9.81L432.12 9.81L432.12 9.81Q432.35 9.49 432.67 9.34L432.67 9.34L432.67 9.34Q432.91 9.39 433.30 9.63L433.30 9.63L433.30 9.63Q433.69 9.86 433.97 10.26L433.97 10.26L433.97 10.26Q433.65 10.63 433.43 10.99L433.43 10.99L433.43 10.99Q433.22 11.35 433.04 11.75L433.04 11.75L433.04 11.75Q432.87 12.14 432.72 12.56L432.72 12.56L432.72 12.56Q432.57 12.98 432.39 13.44L432.39 13.44L432.39 13.44Q432.24 13.83 432.11 14.25L432.11 14.25L432.11 14.25Q431.98 14.66 431.97 14.97L431.97 14.97L431.97 14.97Q431.97 15.22 431.96 15.32L431.96 15.32L431.96 15.32Q431.96 15.43 431.89 15.43L431.89 15.43L431.89 15.43Q431.83 15.43 431.66 15.36L431.66 15.36L431.66 15.36Q431.49 15.29 431.32 15.14L431.32 15.14L431.32 15.14Q431.14 14.99 431.00 14.77L431.00 14.77L431.00 14.77Q430.86 14.55 430.86 14.24ZM433.54 8.16L433.54 8.16L433.54 8.16Q433.54 8.08 433.58 7.91L433.58 7.91L433.58 7.91Q433.51 7.84 433.46 7.70L433.46 7.70L433.46 7.70Q433.41 7.56 433.41 7.45L433.41 7.45L433.41 7.45Q433.41 7.32 433.45 7.11L433.45 7.11L433.45 7.11Q433.48 6.89 433.54 6.64L433.54 6.64L433.54 6.64Q433.59 6.38 433.68 6.11L433.68 6.11L433.68 6.11Q433.76 5.84 433.85 5.61L433.85 5.61L433.85 5.61Q434.01 5.61 434.26 5.71L434.26 5.71L434.26 5.71Q434.50 5.80 434.76 5.94L434.76 5.94L434.76 5.94Q435.01 6.09 435.22 6.27L435.22 6.27L435.22 6.27Q435.43 6.44 435.54 6.59L435.54 6.59L435.54 6.59Q435.39 6.75 435.13 7.02L435.13 7.02L435.13 7.02Q434.88 7.29 434.64 7.59L434.64 7.59L434.64 7.59Q434.41 7.90 434.21 8.16L434.21 8.16L434.21 8.16Q434.01 8.43 433.96 8.54L433.96 8.54L433.96 8.54Q433.79 8.51 433.66 8.39L433.66 8.39L433.66 8.39Q433.54 8.27 433.54 8.16ZM442.68 9.81L441.88 9.81L441.88 9.81Q441.81 9.73 441.76 9.46L441.76 9.46L441.76 9.46Q441.70 9.18 441.70 8.99L441.70 8.99L441.70 8.99Q442.06 9.02 442.40 9.04L442.40 9.04L442.40 9.04Q442.74 9.06 443.02 9.07L443.02 9.07L443.02 9.07Q443.23 8.65 443.47 8.24L443.47 8.24L443.47 8.24Q443.72 7.83 443.95 7.48L443.95 7.48L443.95 7.48Q444.18 7.14 444.38 6.90L444.38 6.90L444.38 6.90Q444.58 6.66 444.70 6.59L444.70 6.59L444.70 6.59Q444.84 6.59 445.05 6.64L445.05 6.64L445.05 6.64Q445.27 6.69 445.49 6.77L445.49 6.77L445.49 6.77Q445.72 6.85 445.90 6.93L445.90 6.93L445.90 6.93Q446.08 7.01 446.15 7.10L446.15 7.10L446.15 7.10Q445.73 7.63 445.43 8.09L445.43 8.09L445.43 8.09Q445.13 8.54 444.78 9.13L444.78 9.13L444.78 9.13Q445.06 9.13 445.35 9.11L445.35 9.11L445.35 9.11Q445.63 9.10 445.93 9.07L445.93 9.07L445.93 9.07Q446.00 9.14 446.04 9.25L446.04 9.25L446.04 9.25Q446.08 9.35 446.08 9.46L446.08 9.46L446.08 9.46Q445.40 9.72 444.42 9.74L444.42 9.74L444.42 9.74Q444.07 10.42 443.79 11.08L443.79 11.08L443.79 11.08Q443.52 11.75 443.33 12.36L443.33 12.36L443.33 12.36Q443.14 12.98 443.04 13.52L443.04 13.52L443.04 13.52Q442.93 14.07 442.93 14.50L442.93 14.50L442.93 14.50Q442.93 15.12 443.39 15.19L443.39 15.19L443.39 15.19Q443.81 15.13 444.19 14.98L444.19 14.98L444.19 14.98Q444.57 14.83 444.86 14.59L444.86 14.59L444.86 14.59Q444.95 14.71 444.96 14.80L444.96 14.80L444.96 14.80Q444.88 14.92 444.67 15.09L444.67 15.09L444.67 15.09Q444.47 15.26 444.23 15.42L444.23 15.42L444.23 15.42Q444.00 15.58 443.77 15.69L443.77 15.69L443.77 15.69Q443.55 15.81 443.44 15.82L443.44 15.82L443.44 15.82Q443.09 15.81 442.74 15.67L442.74 15.67L442.74 15.67Q442.39 15.53 442.10 15.32L442.10 15.32L442.10 15.32Q441.81 15.11 441.63 14.85L441.63 14.85L441.63 14.85Q441.45 14.59 441.45 14.34L441.45 14.34L441.45 14.34Q441.45 14 441.54 13.49L441.54 13.49L441.54 13.49Q441.63 12.98 441.80 12.38L441.80 12.38L441.80 12.38Q441.97 11.77 442.19 11.12L442.19 11.12L442.19 11.12Q442.41 10.46 442.68 9.81L442.68 9.81ZM458.25 13.01L458.25 13.01L458.25 13.01Q457.93 14.03 457.60 14.87L457.60 14.87L457.60 14.87Q457.28 15.71 456.92 16.41L456.92 16.41L456.92 16.41Q456.55 17.12 456.13 17.72L456.13 17.72L456.13 17.72Q455.71 18.31 455.21 18.84L455.21 18.84L455.21 18.84Q454.57 19.52 453.88 19.87L453.88 19.87L453.88 19.87Q453.19 20.23 452.51 20.23L452.51 20.23L452.51 20.23Q452.16 20.23 451.81 20.15L451.81 20.15L451.81 20.15Q451.47 20.08 451.17 19.94L451.17 19.94L451.17 19.94Q450.87 19.81 450.64 19.64L450.64 19.64L450.64 19.64Q450.41 19.46 450.31 19.26L450.31 19.26L450.31 19.26Q450.31 19.10 450.51 18.97L450.51 18.97L450.51 18.97Q450.67 19.12 450.79 19.21L450.79 19.21L450.79 19.21Q450.90 19.29 451.00 19.35L451.00 19.35L451.00 19.35Q451.11 19.40 451.23 19.42L451.23 19.42L451.23 19.42Q451.35 19.43 451.50 19.43L451.50 19.43L451.50 19.43Q452.30 19.43 453.06 18.96L453.06 18.96L453.06 18.96Q453.82 18.49 454.50 17.63L454.50 17.63L454.50 17.63Q455.18 16.77 455.74 15.55L455.74 15.55L455.74 15.55Q456.30 14.32 456.69 12.81L456.69 12.81L456.69 12.81Q456.51 13.09 456.25 13.50L456.25 13.50L456.25 13.50Q455.98 13.90 455.66 14.30L455.66 14.30L455.66 14.30Q455.34 14.70 454.99 15.02L454.99 15.02L454.99 15.02Q454.65 15.34 454.33 15.46L454.33 15.46L454.33 15.46Q454.10 15.44 453.86 15.37L453.86 15.37L453.86 15.37Q453.61 15.29 453.40 15.15L453.40 15.15L453.40 15.15Q453.18 15.01 453.01 14.81L453.01 14.81L453.01 14.81Q452.84 14.62 452.79 14.36L452.79 14.36L452.79 14.36Q452.79 13.96 452.82 13.71L452.82 13.71L452.82 13.71Q452.84 13.47 452.91 13.17L452.91 13.17L452.91 13.17Q453.04 12.64 453.28 11.97L453.28 11.97L453.28 11.97Q453.53 11.30 453.86 10.65L453.86 10.65L453.86 10.65Q454.19 10.00 454.59 9.43L454.59 9.43L454.59 9.43Q454.99 8.86 455.42 8.54L455.42 8.54L455.42 8.54Q455.53 8.54 455.70 8.56L455.70 8.56L455.70 8.56Q455.87 8.58 456.05 8.64L456.05 8.64L456.05 8.64Q456.23 8.69 456.40 8.77L456.40 8.77L456.40 8.77Q456.57 8.85 456.69 8.97L456.69 8.97L456.69 8.97Q456.54 9.11 456.02 9.91L456.02 9.91L456.02 9.91Q455.50 10.71 454.87 12.21L454.87 12.21L454.87 12.21Q454.80 12.36 454.71 12.66L454.71 12.66L454.71 12.66Q454.61 12.95 454.52 13.27L454.52 13.27L454.52 13.27Q454.43 13.59 454.36 13.90L454.36 13.90L454.36 13.90Q454.29 14.21 454.29 14.39L454.29 14.39L454.29 14.39Q454.29 14.50 454.32 14.56L454.32 14.56L454.32 14.56Q454.36 14.62 454.38 14.64L454.38 14.64L454.38 14.64Q454.64 14.60 455.06 14.23L455.06 14.23L455.06 14.23Q455.48 13.86 456.01 13.08L456.01 13.08L456.01 13.08Q456.34 12.57 456.62 12.07L456.62 12.07L456.62 12.07Q456.90 11.58 457.18 11.07L457.18 11.07L457.18 11.07Q457.45 10.57 457.74 10.04L457.74 10.04L457.74 10.04Q458.04 9.51 458.37 8.95L458.37 8.95L458.37 8.95Q458.56 8.95 458.77 8.99L458.77 8.99L458.77 8.99Q458.98 9.03 459.17 9.09L459.17 9.09L459.17 9.09Q459.37 9.16 459.51 9.23L459.51 9.23L459.51 9.23Q459.66 9.31 459.73 9.39L459.73 9.39L459.73 9.39Q459.30 10.32 458.92 11.20L458.92 11.20L458.92 11.20Q458.54 12.08 458.25 13.01Z"></path></g></svg>